<svg version="1.1" viewBox="0.0 0.0 883.8976377952756 530.2939632545932" fill="none" stroke="none" stroke-linecap="square" stroke-miterlimit="10" xmlns:xlink="http://www.w3.org/1999/xlink" xmlns="http://www.w3.org/2000/svg"><clipPath id="p.0"><path d="m0 0l883.89764 0l0 530.29395l-883.89764 0l0 -530.29395z" clip-rule="nonzero"/></clipPath><g clip-path="url(#p.0)"><path fill="#000000" fill-opacity="0.0" d="m0 0l883.89764 0l0 530.29395l-883.89764 0z" fill-rule="evenodd"/><path fill="#f3f3f3" d="m89.11811 41.910763l222.36221 0l0 297.79526l-222.36221 0z" fill-rule="evenodd"/><path stroke="#000000" stroke-width="1.0" stroke-linejoin="round" stroke-linecap="butt" d="m89.11811 41.910763l222.36221 0l0 297.79526l-222.36221 0z" fill-rule="evenodd"/><path fill="#000000" fill-opacity="0.0" d="m89.11811 73.67716l222.36221 0.6614227" fill-rule="evenodd"/><path stroke="#000000" stroke-width="1.0" stroke-linejoin="round" stroke-linecap="butt" d="m89.11811 73.67716l222.36221 0.6614227" fill-rule="evenodd"/><path fill="#000000" fill-opacity="0.0" d="m89.11811 36.95538l222.36221 0l0 42.01575l-222.36221 0z" fill-rule="evenodd"/><path fill="#0000ff" d="m174.5875 60.875378l-4.53125 0l-0.453125 1.125l0.453125 0q0.671875 0 0.953125 0.265625q0.296875 0.265625 0.296875 0.6875q0 0.40625 -0.296875 0.671875q-0.28125 0.25 -0.953125 0.25l-2.515625 0q-0.671875 0 -0.953125 -0.25q-0.296875 -0.265625 -0.296875 -0.6875q0 -0.421875 0.3125 -0.6875q0.296875 -0.265625 0.984375 -0.25l2.9375 -7.296875l-1.21875 0q-0.6875 0 -0.96875 -0.25q-0.28125 -0.265625 -0.28125 -0.6875q0 -0.421875 0.28125 -0.671875q0.28125 -0.265625 0.96875 -0.265625l4.03125 0l3.71875 9.171875q0.65625 0 0.859375 0.15625q0.421875 0.296875 0.421875 0.796875q0 0.40625 -0.28125 0.671875q-0.28125 0.25 -0.953125 0.25l-2.515625 0q-0.671875 0 -0.96875 -0.25q-0.28125 -0.265625 -0.28125 -0.6875q0 -0.40625 0.28125 -0.671875q0.296875 -0.265625 0.96875 -0.265625l0.453125 0l-0.453125 -1.125zm-0.765625 -1.875l-1.5 -3.703125l-1.515625 3.703125l3.015625 0zm12.601822 -3.0625q0.328125 -0.3125 0.6875 -0.3125q0.390625 0 0.65625 0.296875q0.265625 0.28125 0.265625 0.9375l0 1.203125q0 0.671875 -0.265625 0.953125q-0.265625 0.28125 -0.671875 0.28125q-0.390625 0 -0.65625 -0.21875q-0.1875 -0.15625 -0.296875 -0.65625q-0.109375 -0.515625 -0.53125 -0.765625q-0.734375 -0.4375 -1.875 -0.4375q-1.328125 0 -2.125 0.78125q-0.796875 0.78125 -0.796875 1.953125q0 1.09375 0.765625 1.734375q0.765625 0.625 2.546875 0.625q1.15625 0 1.890625 -0.234375q0.4375 -0.140625 0.828125 -0.484375q0.40625 -0.359375 0.71875 -0.359375q0.375 0 0.65625 0.28125q0.28125 0.28125 0.28125 0.671875q0 0.609375 -0.84375 1.171875q-1.265625 0.8281288 -3.6875 0.8281288q-2.171875 0 -3.390625 -0.9062538q-1.640625 -1.203125 -1.640625 -3.3125q0 -2.0 1.328125 -3.296875q1.34375 -1.3125 3.484375 -1.3125q0.765625 0 1.421875 0.15625q0.671875 0.140625 1.25 0.421875zm12.961197 4.75l-7.65625 0q0.296875 0.734375 1.03125 1.1875q0.75 0.4375 2.015625 0.4375q1.03125 0 2.75 -0.453125q0.71875 -0.1875 0.984375 -0.1875q0.375 0 0.625 0.265625q0.265625 0.265625 0.265625 0.671875q0 0.359375 -0.28125 0.625q-0.359375 0.328125 -1.78125 0.640625q-1.40625 0.2968788 -2.703125 0.2968788q-2.25 0 -3.59375 -1.2656288q-1.34375 -1.265625 -1.34375 -3.109375q0 -1.96875 1.453125 -3.203125q1.453125 -1.234375 3.359375 -1.234375q1.140625 0 2.078125 0.40625q0.953125 0.390625 1.421875 0.859375q0.65625 0.671875 1.09375 1.671875q0.28125 0.6875 0.28125 1.59375l0 0.796875zm-2.0625 -1.875q-0.4375 -0.796875 -1.125 -1.1875q-0.6875 -0.40625 -1.640625 -0.40625q-0.953125 0 -1.65625 0.40625q-0.6875 0.390625 -1.125 1.1875l5.546875 0zm8.179947 -3.203125l0 1.15625q1.1875 -0.84375 1.859375 -1.125q0.6875 -0.28125 1.265625 -0.28125q0.921875 0 1.78125 0.671875q0.578125 0.453125 0.578125 0.921875q0 0.40625 -0.28125 0.6875q-0.28125 0.28125 -0.671875 0.28125q-0.34375 0 -0.734375 -0.34375q-0.375 -0.359375 -0.671875 -0.359375q-0.390625 0 -1.171875 0.5q-0.78125 0.484375 -1.953125 1.46875l0 2.8125l2.671875 0q0.671875 0 0.953125 0.265625q0.296875 0.265625 0.296875 0.6875q0 0.40625 -0.296875 0.671875q-0.28125 0.25 -0.953125 0.25l-5.640625 0q-0.671875 0 -0.96875 -0.25q-0.28125 -0.265625 -0.28125 -0.6875q0 -0.40625 0.28125 -0.671875q0.296875 -0.265625 0.96875 -0.265625l1.109375 0l0 -4.53125l-0.671875 0q-0.671875 0 -0.96875 -0.25q-0.28125 -0.265625 -0.28125 -0.6875q0 -0.40625 0.28125 -0.65625q0.296875 -0.265625 0.96875 -0.265625l2.53125 0zm11.601822 6.0l2.015625 -4.140625q-0.75 0 -0.953125 -0.125q-0.453125 -0.28125 -0.453125 -0.8125q0 -0.40625 0.28125 -0.65625q0.28125 -0.265625 0.953125 -0.265625l2.5625 0q0.671875 0 0.953125 0.265625q0.296875 0.25 0.296875 0.671875q0 0.40625 -0.296875 0.671875q-0.28125 0.25 -0.953125 0.25l-0.3125 0l-3.109375 6.40625l-1.953125 0l-3.125 -6.40625l-0.265625 0q-0.671875 0 -0.96875 -0.25q-0.28125 -0.265625 -0.28125 -0.6875q0 -0.40625 0.28125 -0.65625q0.296875 -0.265625 0.96875 -0.265625l2.5 0q0.671875 0 0.953125 0.265625q0.28125 0.25 0.28125 0.671875q0 0.515625 -0.421875 0.78125q-0.21875 0.140625 -0.984375 0.140625l2.03125 4.140625zm16.039307 -1.71875q0 1.078125 -0.609375 2.09375q-0.59375 1.0 -1.78125 1.59375q-1.171875 0.5937538 -2.453125 0.5937538q-1.265625 0 -2.4375 -0.5781288q-1.171875 -0.59375 -1.78125 -1.59375q-0.609375 -1.015625 -0.609375 -2.125q0 -1.125 0.609375 -2.203125q0.625 -1.078125 1.78125 -1.6875q1.171875 -0.625 2.4375 -0.625q1.28125 0 2.453125 0.640625q1.1875 0.625 1.78125 1.703125q0.609375 1.0625 0.609375 2.1875zm-1.875 0.015625q0 -0.90625 -0.640625 -1.65625q-0.890625 -1.03125 -2.328125 -1.03125q-1.265625 0 -2.109375 0.8125q-0.84375 0.8125 -0.84375 1.875q0 0.875 0.84375 1.640625q0.859375 0.765625 2.109375 0.765625q1.265625 0 2.109375 -0.765625q0.859375 -0.765625 0.859375 -1.640625z" fill-rule="nonzero"/><path fill="#000000" fill-opacity="0.0" d="m89.11811 73.67716l222.36221 0l0 126.04725l-222.36221 0z" fill-rule="evenodd"/><path fill="#000000" d="m100.633736 90.413414l0 0.9375q0.640625 -0.65625 1.15625 -0.90625q0.53125 -0.25 1.171875 -0.25q0.703125 0 1.28125 0.296875q0.421875 0.21875 0.75 0.734375q0.328125 0.5 0.328125 1.046875l0 3.875l0.53125 0q0.21875 0 0.3125 0.078125q0.09375 0.078125 0.09375 0.21875q0 0.140625 -0.09375 0.234375q-0.09375 0.078125 -0.3125 0.078125l-1.65625 0q-0.21875 0 -0.328125 -0.078125q-0.09375 -0.09375 -0.09375 -0.234375q0 -0.140625 0.09375 -0.21875q0.109375 -0.078125 0.328125 -0.078125l0.515625 0l0 -3.78125q0 -0.65625 -0.484375 -1.09375q-0.46875 -0.453125 -1.265625 -0.453125q-0.609375 0 -1.0625 0.25q-0.4375 0.234375 -1.265625 1.21875l0 3.859375l0.6875 0q0.21875 0 0.3125 0.078125q0.109375 0.078125 0.109375 0.21875q0 0.140625 -0.109375 0.234375q-0.09375 0.078125 -0.3125 0.078125l-2.0 0q-0.21875 0 -0.3125 -0.078125q-0.09375 -0.09375 -0.09375 -0.234375q0 -0.140625 0.09375 -0.21875q0.09375 -0.078125 0.3125 -0.078125l0.6875 0l0 -5.109375l-0.515625 0q-0.21875 0 -0.3125 -0.078125q-0.09375 -0.09375 -0.09375 -0.234375q0 -0.140625 0.09375 -0.21875q0.09375 -0.09375 0.3125 -0.09375l1.140625 0zm14.42334 3.1875q0 1.40625 -1.015625 2.40625q-1.0 0.984375 -2.421875 0.984375q-1.4375 0 -2.4375 -1.0q-1.0 -1.0 -1.0 -2.390625q0 -1.40625 1.0 -2.40625q1.0 -1.0 2.4375 -1.0q1.421875 0 2.421875 1.0q1.015625 0.984375 1.015625 2.40625zm-0.625 0q0 -1.15625 -0.828125 -1.96875q-0.8125 -0.8125 -1.984375 -0.8125q-1.171875 0 -2.0 0.8125q-0.828125 0.8125 -0.828125 1.96875q0 1.140625 0.828125 1.96875q0.828125 0.8125 2.0 0.8125q1.171875 0 1.984375 -0.8125q0.828125 -0.8125 0.828125 -1.96875zm3.3920898 -3.1875l0 0.625q0.78125 -0.84375 1.578125 -0.84375q0.46875 0 0.828125 0.25q0.359375 0.25 0.59375 0.765625q0.421875 -0.515625 0.84375 -0.765625q0.421875 -0.25 0.84375 -0.25q0.65625 0 1.0625 0.4375q0.515625 0.546875 0.515625 1.203125l0 4.3125l0.515625 0q0.21875 0 0.3125 0.078125q0.109375 0.078125 0.109375 0.21875q0 0.140625 -0.109375 0.234375q-0.09375 0.078125 -0.3125 0.078125l-1.125 0l0 -4.859375q0 -0.46875 -0.296875 -0.765625q-0.28125 -0.3125 -0.65625 -0.3125q-0.328125 0 -0.703125 0.25q-0.375 0.25 -0.859375 1.0l0 4.078125l0.515625 0q0.21875 0 0.3125 0.078125q0.09375 0.078125 0.09375 0.21875q0 0.140625 -0.09375 0.234375q-0.09375 0.078125 -0.3125 0.078125l-1.140625 0l0 -4.8125q0 -0.484375 -0.296875 -0.796875q-0.28125 -0.328125 -0.640625 -0.328125q-0.328125 0 -0.640625 0.203125q-0.453125 0.3125 -0.9375 1.046875l0 4.078125l0.515625 0q0.21875 0 0.3125 0.078125q0.09375 0.078125 0.09375 0.21875q0 0.140625 -0.09375 0.234375q-0.09375 0.078125 -0.3125 0.078125l-1.65625 0q-0.21875 0 -0.3125 -0.078125q-0.09375 -0.09375 -0.09375 -0.234375q0 -0.140625 0.09375 -0.21875q0.09375 -0.078125 0.3125 -0.078125l0.515625 0l0 -5.109375l-0.515625 0q-0.21875 0 -0.3125 -0.078125q-0.09375 -0.09375 -0.09375 -0.234375q0 -0.140625 0.09375 -0.21875q0.09375 -0.09375 0.3125 -0.09375l1.140625 0zm15.126457 3.3125l-6.2656174 0q0.15625 1.203125 1.0 1.9375q0.8437424 0.71875 2.0781174 0.71875q0.6875 0 1.4375 -0.21875q0.75 -0.234375 1.234375 -0.609375q0.140625 -0.109375 0.234375 -0.109375q0.125 0 0.203125 0.09375q0.09375 0.09375 0.09375 0.21875q0 0.125 -0.109375 0.234375q-0.359375 0.375 -1.265625 0.6875q-0.890625 0.3125 -1.828125 0.3125q-1.59375 0 -2.6562424 -1.03125q-1.046875 -1.03125 -1.046875 -2.5q0 -1.34375 0.984375 -2.296875q0.9999924 -0.96875 2.4687424 -0.96875q1.5 0 2.46875 0.984375q0.984375 0.984375 0.96875 2.546875zm-0.625 -0.609375q-0.171875 -1.03125 -0.953125 -1.65625q-0.78125 -0.640625 -1.859375 -0.640625q-1.078125 0 -1.8593674 0.625q-0.765625 0.625 -0.96875 1.671875l5.6406174 0z" fill-rule="nonzero"/><path fill="#000000" d="m104.383736 114.35716l0 -0.890625q-1.34375 1.125 -2.859375 1.125q-1.109375 0 -1.734375 -0.546875q-0.609375 -0.5625 -0.609375 -1.375q0 -0.890625 0.8125 -1.5625q0.828125 -0.671875 2.390625 -0.671875q0.421875 0 0.921875 0.0625q0.5 0.046875 1.078125 0.171875l0 -1.0q0 -0.5 -0.46875 -0.875q-0.46875 -0.375 -1.40625 -0.375q-0.71875 0 -2.015625 0.421875q-0.234375 0.0625 -0.296875 0.0625q-0.109375 0 -0.203125 -0.078125q-0.078125 -0.09375 -0.078125 -0.21875q0 -0.125 0.078125 -0.203125q0.09375 -0.109375 0.828125 -0.296875q1.140625 -0.3125 1.71875 -0.3125q1.171875 0 1.8125 0.578125q0.65625 0.578125 0.65625 1.296875l0 4.078125l0.828125 0q0.21875 0 0.3125 0.078125q0.09375 0.078125 0.09375 0.21875q0 0.140625 -0.09375 0.234375q-0.09375 0.078125 -0.3125 0.078125l-1.453125 0zm0 -3.0625q-0.421875 -0.125 -0.90625 -0.171875q-0.484375 -0.0625 -1.015625 -0.0625q-1.34375 0 -2.109375 0.578125q-0.5625 0.421875 -0.5625 1.03125q0 0.546875 0.4375 0.9375q0.4375 0.375 1.265625 0.375q0.796875 0 1.484375 -0.3125q0.6875 -0.328125 1.40625 -1.015625l0 -1.359375zm5.251465 -3.28125l0 0.9375q0.640625 -0.65625 1.15625 -0.90625q0.53125 -0.25 1.171875 -0.25q0.703125 0 1.28125 0.296875q0.421875 0.21875 0.75 0.734375q0.328125 0.5 0.328125 1.046875l0 3.875l0.53125 0q0.21875 0 0.3125 0.078125q0.09375 0.078125 0.09375 0.21875q0 0.140625 -0.09375 0.234375q-0.09375 0.078125 -0.3125 0.078125l-1.65625 0q-0.21875 0 -0.328125 -0.078125q-0.09375 -0.09375 -0.09375 -0.234375q0 -0.140625 0.09375 -0.21875q0.109375 -0.078125 0.328125 -0.078125l0.515625 0l0 -3.78125q0 -0.65625 -0.484375 -1.09375q-0.46875 -0.453125 -1.265625 -0.453125q-0.609375 0 -1.0625 0.25q-0.4375 0.234375 -1.265625 1.21875l0 3.859375l0.6875 0q0.21875 0 0.3125 0.078125q0.109375 0.078125 0.109375 0.21875q0 0.140625 -0.109375 0.234375q-0.09375 0.078125 -0.3125 0.078125l-2.0 0q-0.21875 0 -0.3125 -0.078125q-0.09375 -0.09375 -0.09375 -0.234375q0 -0.140625 0.09375 -0.21875q0.09375 -0.078125 0.3125 -0.078125l0.6875 0l0 -5.109375l-0.515625 0q-0.21875 0 -0.3125 -0.078125q-0.09375 -0.09375 -0.09375 -0.234375q0 -0.140625 0.09375 -0.21875q0.09375 -0.09375 0.3125 -0.09375l1.140625 0zm14.42334 3.1875q0 1.40625 -1.015625 2.40625q-1.0 0.984375 -2.421875 0.984375q-1.4375 0 -2.4375 -1.0q-1.0 -1.0 -1.0 -2.390625q0 -1.40625 1.0 -2.40625q1.0 -1.0 2.4375 -1.0q1.421875 0 2.421875 1.0q1.015625 0.984375 1.015625 2.40625zm-0.625 0q0 -1.15625 -0.828125 -1.96875q-0.8125 -0.8125 -1.984375 -0.8125q-1.171875 0 -2.0 0.8125q-0.828125 0.8125 -0.828125 1.96875q0 1.140625 0.828125 1.96875q0.828125 0.8125 2.0 0.8125q1.171875 0 1.984375 -0.8125q0.828125 -0.8125 0.828125 -1.96875z" fill-rule="nonzero"/><path fill="#000000" d="m105.946236 128.92592l-6.265625 0q0.15625 1.203125 1.0 1.9375q0.84375 0.71875 2.078125 0.71875q0.6875 0 1.4375 -0.21875q0.75 -0.234375 1.234375 -0.609375q0.140625 -0.109375 0.234375 -0.109375q0.125 0 0.203125 0.09375q0.09375 0.09375 0.09375 0.21875q0 0.125 -0.109375 0.234375q-0.359375 0.375 -1.265625 0.6875q-0.890625 0.3125 -1.828125 0.3125q-1.59375 0 -2.65625 -1.03125q-1.046875 -1.03125 -1.046875 -2.5q0 -1.3437576 0.984375 -2.2968826q1.0 -0.96875 2.46875 -0.96875q1.5 0 2.46875 0.984375q0.984375 0.984375 0.96875 2.5468826zm-0.625 -0.609375q-0.171875 -1.0312576 -0.953125 -1.6562576q-0.78125 -0.640625 -1.859375 -0.640625q-1.078125 0 -1.859375 0.625q-0.765625 0.625 -0.96875 1.6718826l5.640625 0zm9.313965 -5.5468826l0 8.578133l0.8125 0q0.234375 0 0.328125 0.078125q0.09375 0.078125 0.09375 0.21875q0 0.140625 -0.09375 0.234375q-0.09375 0.078125 -0.328125 0.078125l-1.4375 0l0 -1.21875q-1.0625 1.453125 -2.71875 1.453125q-0.828125 0 -1.59375 -0.4375q-0.765625 -0.4375 -1.21875 -1.25q-0.4375 -0.828125 -0.4375 -1.703125q0 -0.8750076 0.4375 -1.6875076q0.453125 -0.828125 1.21875 -1.265625q0.765625 -0.453125 1.609375 -0.453125q1.609375 0 2.703125 1.46875l0 -3.46875l-0.8125 0q-0.234375 0 -0.328125 -0.09375q-0.09375 -0.09375 -0.09375 -0.234375q0 -0.125 0.09375 -0.203125q0.09375 -0.09375 0.328125 -0.09375l1.4375 0zm-0.625 6.0312576q0 -1.1718826 -0.796875 -1.9687576q-0.78125 -0.8125 -1.875 -0.8125q-1.09375 0 -1.890625 0.8125q-0.796875 0.796875 -0.796875 1.9687576q0 1.15625 0.796875 1.96875q0.796875 0.8125 1.890625 0.8125q1.09375 0 1.875 -0.8125q0.796875 -0.8125 0.796875 -1.96875zm6.92334 -6.3437576l0 1.59375l-0.921875 0l0 -1.59375l0.921875 0zm0.015625 3.15625l0 5.7343826l2.421875 0q0.21875 0 0.3125 0.078125q0.09375 0.078125 0.09375 0.21875q0 0.140625 -0.09375 0.234375q-0.09375 0.078125 -0.3125 0.078125l-5.453125 0q-0.21875 0 -0.3125 -0.078125q-0.09375 -0.09375 -0.09375 -0.234375q0 -0.140625 0.09375 -0.21875q0.09375 -0.078125 0.3125 -0.078125l2.421875 0l0 -5.1093826l-1.796875 0q-0.21875 0 -0.328125 -0.078125q-0.09375 -0.09375 -0.09375 -0.234375q0 -0.140625 0.09375 -0.21875q0.09375 -0.09375 0.328125 -0.09375l2.40625 0zm7.407707 0l3.34375 0q0.21875 0 0.3125 0.09375q0.09375 0.078125 0.09375 0.21875q0 0.140625 -0.09375 0.234375q-0.09375 0.078125 -0.3125 0.078125l-3.34375 0l0 4.0937576q0 0.53125 0.421875 0.890625q0.4375 0.359375 1.265625 0.359375q0.625 0 1.34375 -0.1875q0.734375 -0.1875 1.125 -0.421875q0.15625 -0.09375 0.25 -0.09375q0.109375 0 0.203125 0.09375q0.09375 0.09375 0.09375 0.21875q0 0.109375 -0.09375 0.203125q-0.234375 0.234375 -1.140625 0.515625q-0.90625 0.28125 -1.734375 0.28125q-1.078125 0 -1.71875 -0.5q-0.6406174 -0.5 -0.6406174 -1.359375l0 -4.0937576l-1.125 0q-0.21875 0 -0.328125 -0.078125q-0.09375 -0.09375 -0.09375 -0.234375q0 -0.140625 0.09375 -0.21875q0.109375 -0.09375 0.328125 -0.09375l1.125 0l0 -1.8125q0 -0.21875 0.09375 -0.3125q0.09375 -0.09375 0.21874237 -0.09375q0.140625 0 0.21875 0.09375q0.09375 0.09375 0.09375 0.3125l0 1.8125zm13.70459 3.1875076q0 1.40625 -1.015625 2.40625q-1.0 0.984375 -2.421875 0.984375q-1.4375 0 -2.4375 -1.0q-1.0 -1.0 -1.0 -2.390625q0 -1.4062576 1.0 -2.4062576q1.0 -1.0 2.4375 -1.0q1.421875 0 2.421875 1.0q1.015625 0.984375 1.015625 2.4062576zm-0.625 0q0 -1.1562576 -0.828125 -1.9687576q-0.8125 -0.8125 -1.984375 -0.8125q-1.171875 0 -2.0 0.8125q-0.828125 0.8125 -0.828125 1.9687576q0 1.140625 0.828125 1.96875q0.828125 0.8125 2.0 0.8125q1.171875 0 1.984375 -0.8125q0.828125 -0.8125 0.828125 -1.96875zm5.45459 -3.1875076l0 1.546875q1.203125 -1.078125 1.796875 -1.390625q0.59375 -0.3125 1.109375 -0.3125q0.546875 0 1.015625 0.375q0.46875 0.375 0.46875 0.5625q0 0.140625 -0.09375 0.234375q-0.09375 0.078125 -0.21875 0.078125q-0.078125 0 -0.140625 -0.015625q-0.046875 -0.03125 -0.1875 -0.171875q-0.25 -0.25 -0.4375 -0.34375q-0.1875 -0.09375 -0.375 -0.09375q-0.40625 0 -0.984375 0.328125q-0.5625 0.3125 -1.953125 1.5625l0 3.3750076l2.71875 0q0.234375 0 0.328125 0.078125q0.09375 0.078125 0.09375 0.21875q0 0.140625 -0.09375 0.234375q-0.09375 0.078125 -0.328125 0.078125l-4.828125 0q-0.21875 0 -0.3125 -0.078125q-0.09375 -0.09375 -0.09375 -0.21875q0 -0.125 0.09375 -0.203125q0.09375 -0.09375 0.3125 -0.09375l1.5 0l0 -5.1250076l-1.140625 0q-0.21875 0 -0.3125 -0.078125q-0.09375 -0.09375 -0.09375 -0.234375q0 -0.140625 0.078125 -0.21875q0.09375 -0.09375 0.328125 -0.09375l1.75 0zm11.501465 6.3437576l0 -0.890625q-1.34375 1.125 -2.859375 1.125q-1.109375 0 -1.734375 -0.546875q-0.609375 -0.5625 -0.609375 -1.375q0 -0.890625 0.8125 -1.5625q0.828125 -0.671875 2.390625 -0.671875q0.421875 0 0.921875 0.0625q0.5 0.046875 1.078125 0.171875l0 -1.0000076q0 -0.5 -0.46875 -0.875q-0.46875 -0.375 -1.40625 -0.375q-0.71875 0 -2.015625 0.421875q-0.234375 0.0625 -0.296875 0.0625q-0.109375 0 -0.203125 -0.078125q-0.078125 -0.09375 -0.078125 -0.21875q0 -0.125 0.078125 -0.203125q0.09375 -0.109375 0.828125 -0.296875q1.140625 -0.3125 1.71875 -0.3125q1.171875 0 1.8125 0.578125q0.65625 0.578125 0.65625 1.296875l0 4.0781326l0.828125 0q0.21875 0 0.3125 0.078125q0.09375 0.078125 0.09375 0.21875q0 0.140625 -0.09375 0.234375q-0.09375 0.078125 -0.3125 0.078125l-1.453125 0zm0 -3.0625q-0.421875 -0.125 -0.90625 -0.171875q-0.484375 -0.0625 -1.015625 -0.0625q-1.34375 0 -2.109375 0.578125q-0.5625 0.421875 -0.5625 1.03125q0 0.546875 0.4375 0.9375q0.4375 0.375 1.265625 0.375q0.796875 0 1.484375 -0.3125q0.6875 -0.328125 1.40625 -1.015625l0 -1.359375z" fill-rule="nonzero"/><path fill="#000000" d="m104.383736 149.55716l0 -0.890625q-1.34375 1.125 -2.859375 1.125q-1.109375 0 -1.734375 -0.546875q-0.609375 -0.5625 -0.609375 -1.375q0 -0.890625 0.8125 -1.5625q0.828125 -0.671875 2.390625 -0.671875q0.421875 0 0.921875 0.0625q0.5 0.046875 1.078125 0.171875l0 -1.0q0 -0.5 -0.46875 -0.875q-0.46875 -0.375 -1.40625 -0.375q-0.71875 0 -2.015625 0.421875q-0.234375 0.0625 -0.296875 0.0625q-0.109375 0 -0.203125 -0.078125q-0.078125 -0.09375 -0.078125 -0.21875q0 -0.125 0.078125 -0.203125q0.09375 -0.109375 0.828125 -0.296875q1.140625 -0.3125 1.71875 -0.3125q1.171875 0 1.8125 0.578125q0.65625 0.578125 0.65625 1.296875l0 4.078125l0.828125 0q0.21875 0 0.3125 0.078125q0.09375 0.078125 0.09375 0.21875q0 0.140625 -0.09375 0.234375q-0.09375 0.078125 -0.3125 0.078125l-1.453125 0zm0 -3.0625q-0.421875 -0.125 -0.90625 -0.171875q-0.484375 -0.0625 -1.015625 -0.0625q-1.34375 0 -2.109375 0.578125q-0.5625 0.421875 -0.5625 1.03125q0 0.546875 0.4375 0.9375q0.4375 0.375 1.265625 0.375q0.796875 0 1.484375 -0.3125q0.6875 -0.328125 1.40625 -1.015625l0 -1.359375zm9.345215 3.0625l0 -0.90625q-1.265625 1.140625 -2.734375 1.140625q-0.890625 0 -1.359375 -0.484375q-0.609375 -0.640625 -0.609375 -1.5l0 -3.96875l-0.828125 0q-0.21875 0 -0.3125 -0.078125q-0.09375 -0.09375 -0.09375 -0.234375q0 -0.140625 0.09375 -0.21875q0.09375 -0.09375 0.3125 -0.09375l1.4375 0l0 4.59375q0 0.59375 0.375 0.984375q0.390625 0.390625 0.96875 0.390625q1.5 0 2.75 -1.375l0 -3.96875l-1.140625 0q-0.21875 0 -0.3125 -0.078125q-0.09375 -0.09375 -0.09375 -0.234375q0 -0.140625 0.09375 -0.21875q0.09375 -0.09375 0.3125 -0.09375l1.75 0l0 5.734375l0.515625 0q0.234375 0 0.328125 0.078125q0.09375 0.078125 0.09375 0.21875q0 0.140625 -0.09375 0.234375q-0.09375 0.078125 -0.328125 0.078125l-1.125 0zm5.626465 -6.34375l3.34375 0q0.21875 0 0.3125 0.09375q0.09375 0.078125 0.09375 0.21875q0 0.140625 -0.09375 0.234375q-0.09375 0.078125 -0.3125 0.078125l-3.34375 0l0 4.09375q0 0.53125 0.421875 0.890625q0.4375 0.359375 1.265625 0.359375q0.625 0 1.34375 -0.1875q0.734375 -0.1875 1.125 -0.421875q0.15625 -0.09375 0.25 -0.09375q0.109375 0 0.203125 0.09375q0.09375 0.09375 0.09375 0.21875q0 0.109375 -0.09375 0.203125q-0.234375 0.234375 -1.140625 0.515625q-0.90625 0.28125 -1.734375 0.28125q-1.078125 0 -1.71875 -0.5q-0.640625 -0.5 -0.640625 -1.359375l0 -4.09375l-1.125 0q-0.21875 0 -0.328125 -0.078125q-0.09375 -0.09375 -0.09375 -0.234375q0 -0.140625 0.09375 -0.21875q0.109375 -0.09375 0.328125 -0.09375l1.125 0l0 -1.8125q0 -0.21875 0.09375 -0.3125q0.09375 -0.09375 0.21875 -0.09375q0.140625 0 0.21875 0.09375q0.09375 0.09375 0.09375 0.3125l0 1.8125zm13.704582 3.1875q0 1.40625 -1.015625 2.40625q-1.0 0.984375 -2.421875 0.984375q-1.4375 0 -2.4374924 -1.0q-1.0 -1.0 -1.0 -2.390625q0 -1.40625 1.0 -2.40625q0.9999924 -1.0 2.4374924 -1.0q1.421875 0 2.421875 1.0q1.015625 0.984375 1.015625 2.40625zm-0.625 0q0 -1.15625 -0.828125 -1.96875q-0.8125 -0.8125 -1.984375 -0.8125q-1.171875 0 -1.9999924 0.8125q-0.828125 0.8125 -0.828125 1.96875q0 1.140625 0.828125 1.96875q0.8281174 0.8125 1.9999924 0.8125q1.171875 0 1.984375 -0.8125q0.828125 -0.8125 0.828125 -1.96875zm5.45459 -3.1875l0 1.546875q1.203125 -1.078125 1.796875 -1.390625q0.59375 -0.3125 1.109375 -0.3125q0.546875 0 1.015625 0.375q0.46875 0.375 0.46875 0.5625q0 0.140625 -0.09375 0.234375q-0.09375 0.078125 -0.21875 0.078125q-0.078125 0 -0.140625 -0.015625q-0.046875 -0.03125 -0.1875 -0.171875q-0.25 -0.25 -0.4375 -0.34375q-0.1875 -0.09375 -0.375 -0.09375q-0.40625 0 -0.984375 0.328125q-0.5625 0.3125 -1.953125 1.5625l0 3.375l2.71875 0q0.234375 0 0.328125 0.078125q0.09375 0.078125 0.09375 0.21875q0 0.140625 -0.09375 0.234375q-0.09375 0.078125 -0.328125 0.078125l-4.828125 0q-0.21875 0 -0.3125 -0.078125q-0.09375 -0.09375 -0.09375 -0.21875q0 -0.125 0.09375 -0.203125q0.09375 -0.09375 0.3125 -0.09375l1.5 0l0 -5.125l-1.140625 0q-0.21875 0 -0.3125 -0.078125q-0.09375 -0.09375 -0.09375 -0.234375q0 -0.140625 0.078125 -0.21875q0.09375 -0.09375 0.328125 -0.09375l1.75 0z" fill-rule="nonzero"/><path fill="#000000" d="m102.93061 157.65717l0 1.59375l-0.921875 0l0 -1.59375l0.921875 0zm0.015625 3.15625l0 5.734375l2.421875 0q0.21875 0 0.3125 0.078125q0.09375 0.078125 0.09375 0.21875q0 0.140625 -0.09375 0.234375q-0.09375 0.078125 -0.3125 0.078125l-5.453125 0q-0.21875 0 -0.3125 -0.078125q-0.09375 -0.09375 -0.09375 -0.234375q0 -0.140625 0.09375 -0.21875q0.09375 -0.078125 0.3125 -0.078125l2.421875 0l0 -5.109375l-1.796875 0q-0.21875 0 -0.328125 -0.078125q-0.09375 -0.09375 -0.09375 -0.234375q0 -0.140625 0.09375 -0.21875q0.09375 -0.09375 0.328125 -0.09375l2.40625 0zm10.70459 0.40625q0 -0.21875 0.078125 -0.3125q0.09375 -0.09375 0.234375 -0.09375q0.140625 0 0.21875 0.09375q0.09375 0.09375 0.09375 0.328125l0 1.046875q0 0.21875 -0.09375 0.328125q-0.078125 0.09375 -0.21875 0.09375q-0.125 0 -0.21875 -0.078125q-0.078125 -0.09375 -0.09375 -0.28125q-0.046875 -0.4375 -0.453125 -0.71875q-0.59375 -0.40625 -1.59375 -0.40625q-1.03125 0 -1.59375 0.421875q-0.4375 0.3125 -0.4375 0.703125q0 0.4375 0.515625 0.71875q0.34375 0.21875 1.328125 0.328125q1.28125 0.125 1.78125 0.3125q0.71875 0.25 1.0625 0.703125q0.34375 0.453125 0.34375 0.984375q0 0.78125 -0.75 1.390625q-0.75 0.609375 -2.21875 0.609375q-1.453125 0 -2.390625 -0.734375q0 0.25 -0.03125 0.328125q-0.015625 0.0625 -0.09375 0.125q-0.078125 0.046875 -0.171875 0.046875q-0.140625 0 -0.234375 -0.09375q-0.078125 -0.09375 -0.078125 -0.3125l0 -1.265625q0 -0.21875 0.078125 -0.3125q0.09375 -0.109375 0.234375 -0.109375q0.125 0 0.21875 0.09375q0.09375 0.09375 0.09375 0.25q0 0.34375 0.171875 0.5625q0.25 0.359375 0.8125 0.59375q0.5625 0.21875 1.375 0.21875q1.203125 0 1.78125 -0.4375q0.59375 -0.453125 0.59375 -0.953125q0 -0.578125 -0.59375 -0.921875q-0.609375 -0.34375 -1.75 -0.453125q-1.140625 -0.125 -1.640625 -0.3125q-0.5 -0.1875 -0.78125 -0.5625q-0.28125 -0.390625 -0.28125 -0.828125q0 -0.78125 0.78125 -1.25q0.78125 -0.46875 1.84375 -0.46875q1.28125 0 2.078125 0.625zm4.657715 -3.25l0 4.078125q1.109375 -1.453125 2.6875 -1.453125q1.34375 0 2.296875 0.984375q0.96875 0.96875 0.96875 2.390625q0 1.4375 -0.96875 2.4375q-0.96875 0.984375 -2.296875 0.984375q-1.609375 0 -2.6875 -1.4375l0 1.203125l-1.453125 0q-0.21875 0 -0.3125 -0.078125q-0.09375 -0.09375 -0.09375 -0.234375q0 -0.140625 0.09375 -0.21875q0.09375 -0.078125 0.3125 -0.078125l0.828125 0l0 -7.953125l-0.828125 0q-0.21875 0 -0.3125 -0.09375q-0.09375 -0.09375 -0.09375 -0.234375q0 -0.125 0.09375 -0.203125q0.09375 -0.09375 0.3125 -0.09375l1.453125 0zm5.328125 6.03125q0 -1.171875 -0.796875 -1.96875q-0.796875 -0.8125 -1.859375 -0.8125q-1.078125 0 -1.875 0.8125q-0.796875 0.796875 -0.796875 1.96875q0 1.15625 0.796875 1.96875q0.796875 0.8125 1.875 0.8125q1.0625 0 1.859375 -0.8125q0.796875 -0.8125 0.796875 -1.96875zm4.001465 -3.1875l0 0.9375q0.6406174 -0.65625 1.1562424 -0.90625q0.53125 -0.25 1.171875 -0.25q0.703125 0 1.28125 0.296875q0.421875 0.21875 0.75 0.734375q0.328125 0.5 0.328125 1.046875l0 3.875l0.53125 0q0.21875 0 0.3125 0.078125q0.09375 0.078125 0.09375 0.21875q0 0.140625 -0.09375 0.234375q-0.09375 0.078125 -0.3125 0.078125l-1.65625 0q-0.21875 0 -0.328125 -0.078125q-0.09375 -0.09375 -0.09375 -0.234375q0 -0.140625 0.09375 -0.21875q0.109375 -0.078125 0.328125 -0.078125l0.515625 0l0 -3.78125q0 -0.65625 -0.484375 -1.09375q-0.46875 -0.453125 -1.265625 -0.453125q-0.609375 0 -1.0625 0.25q-0.4375 0.234375 -1.2656174 1.21875l0 3.859375l0.6874924 0q0.21875 0 0.3125 0.078125q0.109375 0.078125 0.109375 0.21875q0 0.140625 -0.109375 0.234375q-0.09375 0.078125 -0.3125 0.078125l-1.9999924 0q-0.21875 0 -0.3125 -0.078125q-0.09375 -0.09375 -0.09375 -0.234375q0 -0.140625 0.09375 -0.21875q0.09375 -0.078125 0.3125 -0.078125l0.6875 0l0 -5.109375l-0.515625 0q-0.21875 0 -0.3125 -0.078125q-0.09375 -0.09375 -0.09375 -0.234375q0 -0.140625 0.09375 -0.21875q0.09375 -0.09375 0.3125 -0.09375l1.140625 0z" fill-rule="nonzero"/><path fill="#000000" d="m104.727486 184.75716l0 -0.90625q-1.265625 1.140625 -2.734375 1.140625q-0.890625 0 -1.359375 -0.484375q-0.609375 -0.640625 -0.609375 -1.5l0 -3.96875l-0.828125 0q-0.21875 0 -0.3125 -0.078125q-0.09375 -0.09375 -0.09375 -0.234375q0 -0.140625 0.09375 -0.21875q0.09375 -0.09375 0.3125 -0.09375l1.4375 0l0 4.59375q0 0.59375 0.375 0.984375q0.390625 0.390625 0.96875 0.390625q1.5 0 2.75 -1.375l0 -3.96875l-1.140625 0q-0.21875 0 -0.3125 -0.078125q-0.09375 -0.09375 -0.09375 -0.234375q0 -0.140625 0.09375 -0.21875q0.09375 -0.09375 0.3125 -0.09375l1.75 0l0 5.734375l0.515625 0q0.234375 0 0.328125 0.078125q0.09375 0.078125 0.09375 0.21875q0 0.140625 -0.09375 0.234375q-0.09375 0.078125 -0.328125 0.078125l-1.125 0zm8.92334 -5.9375q0 -0.21875 0.078125 -0.3125q0.09375 -0.09375 0.234375 -0.09375q0.140625 0 0.21875 0.09375q0.09375 0.09375 0.09375 0.328125l0 1.046875q0 0.21875 -0.09375 0.328125q-0.078125 0.09375 -0.21875 0.09375q-0.125 0 -0.21875 -0.078125q-0.078125 -0.09375 -0.09375 -0.28125q-0.046875 -0.4375 -0.453125 -0.71875q-0.59375 -0.40625 -1.59375 -0.40625q-1.03125 0 -1.59375 0.421875q-0.4375 0.3125 -0.4375 0.703125q0 0.4375 0.515625 0.71875q0.34375 0.21875 1.328125 0.328125q1.28125 0.125 1.78125 0.3125q0.71875 0.25 1.0625 0.703125q0.34375 0.453125 0.34375 0.984375q0 0.78125 -0.75 1.390625q-0.75 0.609375 -2.21875 0.609375q-1.453125 0 -2.390625 -0.734375q0 0.25 -0.03125 0.328125q-0.015625 0.0625 -0.09375 0.125q-0.078125 0.046875 -0.171875 0.046875q-0.140625 0 -0.234375 -0.09375q-0.078125 -0.09375 -0.078125 -0.3125l0 -1.265625q0 -0.21875 0.078125 -0.3125q0.09375 -0.109375 0.234375 -0.109375q0.125 0 0.21875 0.09375q0.09375 0.09375 0.09375 0.25q0 0.34375 0.171875 0.5625q0.25 0.359375 0.8125 0.59375q0.5625 0.21875 1.375 0.21875q1.203125 0 1.78125 -0.4375q0.59375 -0.453125 0.59375 -0.953125q0 -0.578125 -0.59375 -0.921875q-0.609375 -0.34375 -1.75 -0.453125q-1.140625 -0.125 -1.640625 -0.3125q-0.5 -0.1875 -0.78125 -0.5625q-0.28125 -0.390625 -0.28125 -0.828125q0 -0.78125 0.78125 -1.25q0.78125 -0.46875 1.84375 -0.46875q1.28125 0 2.078125 0.625zm9.07959 5.9375l0 -0.90625q-1.265625 1.140625 -2.734375 1.140625q-0.890625 0 -1.359375 -0.484375q-0.609375 -0.640625 -0.609375 -1.5l0 -3.96875l-0.828125 0q-0.21875 0 -0.3125 -0.078125q-0.09375 -0.09375 -0.09375 -0.234375q0 -0.140625 0.09375 -0.21875q0.09375 -0.09375 0.3125 -0.09375l1.4375 0l0 4.59375q0 0.59375 0.375 0.984375q0.390625 0.390625 0.96875 0.390625q1.5 0 2.75 -1.375l0 -3.96875l-1.140625 0q-0.21875 0 -0.3125 -0.078125q-0.09375 -0.09375 -0.09375 -0.234375q0 -0.140625 0.09375 -0.21875q0.09375 -0.09375 0.3125 -0.09375l1.75 0l0 5.734375l0.515625 0q0.234375 0 0.328125 0.078125q0.09375 0.078125 0.09375 0.21875q0 0.140625 -0.09375 0.234375q-0.09375 0.078125 -0.328125 0.078125l-1.125 0zm8.657707 0l0 -0.890625q-1.34375 1.125 -2.859375 1.125q-1.1093674 0 -1.7343674 -0.546875q-0.609375 -0.5625 -0.609375 -1.375q0 -0.890625 0.8125 -1.5625q0.828125 -0.671875 2.3906174 -0.671875q0.421875 0 0.921875 0.0625q0.5 0.046875 1.078125 0.171875l0 -1.0q0 -0.5 -0.46875 -0.875q-0.46875 -0.375 -1.40625 -0.375q-0.71875 0 -2.0156174 0.421875q-0.234375 0.0625 -0.296875 0.0625q-0.109375 0 -0.203125 -0.078125q-0.078125 -0.09375 -0.078125 -0.21875q0 -0.125 0.078125 -0.203125q0.09375 -0.109375 0.828125 -0.296875q1.1406174 -0.3125 1.7187424 -0.3125q1.171875 0 1.8125 0.578125q0.65625 0.578125 0.65625 1.296875l0 4.078125l0.828125 0q0.21875 0 0.3125 0.078125q0.09375 0.078125 0.09375 0.21875q0 0.140625 -0.09375 0.234375q-0.09375 0.078125 -0.3125 0.078125l-1.453125 0zm0 -3.0625q-0.421875 -0.125 -0.90625 -0.171875q-0.484375 -0.0625 -1.015625 -0.0625q-1.34375 0 -2.1093674 0.578125q-0.5625 0.421875 -0.5625 1.03125q0 0.546875 0.4375 0.9375q0.4375 0.375 1.2656174 0.375q0.796875 0 1.484375 -0.3125q0.6875 -0.328125 1.40625 -1.015625l0 -1.359375zm6.501465 -3.28125l0 1.546875q1.203125 -1.078125 1.796875 -1.390625q0.59375 -0.3125 1.109375 -0.3125q0.546875 0 1.015625 0.375q0.46875 0.375 0.46875 0.5625q0 0.140625 -0.09375 0.234375q-0.09375 0.078125 -0.21875 0.078125q-0.078125 0 -0.140625 -0.015625q-0.046875 -0.03125 -0.1875 -0.171875q-0.25 -0.25 -0.4375 -0.34375q-0.1875 -0.09375 -0.375 -0.09375q-0.40625 0 -0.984375 0.328125q-0.5625 0.3125 -1.953125 1.5625l0 3.375l2.71875 0q0.234375 0 0.328125 0.078125q0.09375 0.078125 0.09375 0.21875q0 0.140625 -0.09375 0.234375q-0.09375 0.078125 -0.328125 0.078125l-4.828125 0q-0.21875 0 -0.3125 -0.078125q-0.09375 -0.09375 -0.09375 -0.21875q0 -0.125 0.09375 -0.203125q0.09375 -0.09375 0.3125 -0.09375l1.5 0l0 -5.125l-1.140625 0q-0.21875 0 -0.3125 -0.078125q-0.09375 -0.09375 -0.09375 -0.234375q0 -0.140625 0.078125 -0.21875q0.09375 -0.09375 0.328125 -0.09375l1.75 0zm10.04834 -3.15625l0 1.59375l-0.921875 0l0 -1.59375l0.921875 0zm0.015625 3.15625l0 5.734375l2.421875 0q0.21875 0 0.3125 0.078125q0.09375 0.078125 0.09375 0.21875q0 0.140625 -0.09375 0.234375q-0.09375 0.078125 -0.3125 0.078125l-5.453125 0q-0.21875 0 -0.3125 -0.078125q-0.09375 -0.09375 -0.09375 -0.234375q0 -0.140625 0.09375 -0.21875q0.09375 -0.078125 0.3125 -0.078125l2.421875 0l0 -5.109375l-1.796875 0q-0.21875 0 -0.328125 -0.078125q-0.09375 -0.09375 -0.09375 -0.234375q0 -0.140625 0.09375 -0.21875q0.09375 -0.09375 0.328125 -0.09375l2.40625 0zm12.11084 3.1875q0 1.40625 -1.015625 2.40625q-1.0 0.984375 -2.421875 0.984375q-1.4375 0 -2.4375 -1.0q-1.0 -1.0 -1.0 -2.390625q0 -1.40625 1.0 -2.40625q1.0 -1.0 2.4375 -1.0q1.421875 0 2.421875 1.0q1.015625 0.984375 1.015625 2.40625zm-0.625 0q0 -1.15625 -0.828125 -1.96875q-0.8125 -0.8125 -1.984375 -0.8125q-1.171875 0 -2.0 0.8125q-0.828125 0.8125 -0.828125 1.96875q0 1.140625 0.828125 1.96875q0.828125 0.8125 2.0 0.8125q1.171875 0 1.984375 -0.8125q0.828125 -0.8125 0.828125 -1.96875z" fill-rule="nonzero"/><path fill="#000000" fill-opacity="0.0" d="m89.779526 232.49869l221.70079 0" fill-rule="evenodd"/><path stroke="#000000" stroke-width="1.0" stroke-linejoin="round" stroke-linecap="butt" d="m89.779526 232.49869l221.70079 0" fill-rule="evenodd"/><path fill="#f3f3f3" d="m567.6903 46.866142l222.36218 0l0 297.79526l-222.36218 0z" fill-rule="evenodd"/><path stroke="#000000" stroke-width="1.0" stroke-linejoin="round" stroke-linecap="butt" d="m567.6903 46.866142l222.36218 0l0 297.79526l-222.36218 0z" fill-rule="evenodd"/><path fill="#000000" fill-opacity="0.0" d="m567.6903 78.632545l222.36218 0.6614151" fill-rule="evenodd"/><path stroke="#000000" stroke-width="1.0" stroke-linejoin="round" stroke-linecap="butt" d="m567.6903 78.632545l222.36218 0.6614151" fill-rule="evenodd"/><path fill="#000000" fill-opacity="0.0" d="m567.6903 41.910763l222.36218 0l0 42.015743l-222.36218 0z" fill-rule="evenodd"/><path fill="#0000ff" d="m643.9485 59.658886l0 5.296871q0 1.71875 -1.25 2.9375q-1.234375 1.203125 -2.984375 1.203125q-0.859375 0 -1.625 -0.296875q-0.75 -0.3125 -1.359375 -0.890625q-0.609375 -0.59375 -0.953125 -1.234375q-0.328125 -0.65625 -0.328125 -1.71875l0 -5.296871q-0.59375 0 -0.875 -0.265625q-0.28125 -0.265625 -0.28125 -0.671875q0 -0.421875 0.28125 -0.671875q0.28125 -0.265625 0.96875 -0.265625l2.453125 0q0.671875 0 0.953125 0.265625q0.28125 0.25 0.28125 0.671875q0 0.421875 -0.28125 0.6875q-0.28125 0.25 -0.953125 0.25l-0.6875 0l0 5.453121q0 0.84375 0.703125 1.484375q0.703125 0.640625 1.6875 0.640625q0.65625 0 1.21875 -0.3125q0.578125 -0.3125 0.9375 -0.90625q0.234375 -0.359375 0.234375 -0.90625l0 -5.453121l-0.671875 0q-0.671875 0 -0.96875 -0.25q-0.28125 -0.265625 -0.28125 -0.6875q0 -0.421875 0.28125 -0.671875q0.296875 -0.265625 0.96875 -0.265625l2.453125 0q0.671875 0 0.953125 0.265625q0.28125 0.25 0.28125 0.671875q0 0.40625 -0.28125 0.671875q-0.28125 0.265625 -0.875 0.265625zm8.945557 3.09375q-0.453125 -0.296875 -0.953125 -0.4375q-0.5 -0.140625 -1.046875 -0.140625q-1.078125 0 -1.71875 0.359375q-0.28125 0.15625 -0.28125 0.34375q0 0.203125 0.375 0.40625q0.296875 0.140625 1.3125 0.28125q1.859375 0.25 2.578125 0.5156212q0.96875 0.328125 1.484375 1.0q0.515625 0.65625 0.515625 1.40625q0 1.0 -0.890625 1.671875q-1.265625 0.96875 -3.28125 0.96875q-0.8125 0 -1.5 -0.140625q-0.6875 -0.140625 -1.265625 -0.40625q-0.125 0.109375 -0.28125 0.171875q-0.15625 0.0625 -0.328125 0.0625q-0.4375 0 -0.703125 -0.28125q-0.25 -0.28125 -0.25 -0.953125l0 -0.640625q0 -0.671875 0.25 -0.953125q0.265625 -0.296875 0.6875 -0.296875q0.34375 0 0.5625 0.1875q0.234375 0.1875 0.359375 0.640625q0.421875 0.375 1.015625 0.5625q0.609375 0.1875 1.390625 0.1875q1.296875 0 2.0 -0.40625q0.34375 -0.203125 0.34375 -0.421875q0 -0.359375 -0.484375 -0.59375q-0.484375 -0.234375 -2.0 -0.40625q-2.25 -0.234375 -3.0 -0.90625q-0.765625 -0.6718712 -0.765625 -1.6406212q0 -1.0 0.859375 -1.671875q1.140625 -0.90625 3.0 -0.90625q0.640625 0 1.234375 0.125q0.609375 0.125 1.15625 0.375q0.171875 -0.125 0.3125 -0.1875q0.15625 -0.0625 0.28125 -0.0625q0.390625 0 0.640625 0.28125q0.25 0.28125 0.25 0.96875l0 0.453125q0 0.609375 -0.140625 0.828125q-0.296875 0.421875 -0.796875 0.421875q-0.328125 0 -0.59375 -0.203125q-0.25 -0.21875 -0.328125 -0.5625zm13.148682 -2.1875l0 6.390621q0.59375 0 0.875 0.265625q0.28125 0.265625 0.28125 0.6875q0 0.40625 -0.296875 0.671875q-0.28125 0.25 -0.953125 0.25l-1.765625 0l0 -0.421875q-0.8125 0.359375 -1.546875 0.53125q-0.71875 0.1875 -1.375 0.1875q-0.921875 0 -1.59375 -0.375q-0.671875 -0.390625 -1.0625 -1.078125q-0.28125 -0.5 -0.28125 -1.234375l0 -4.015621l-0.328125 0q-0.671875 0 -0.96875 -0.25q-0.28125 -0.265625 -0.28125 -0.6875q0 -0.40625 0.28125 -0.65625q0.296875 -0.265625 0.96875 -0.265625l2.1875 0l0 5.546871q0 0.59375 0.28125 0.875q0.296875 0.28125 0.890625 0.28125q0.5625 0 1.203125 -0.21875q0.65625 -0.234375 1.625 -0.8125l0 -3.8124962l-0.6875 0q-0.671875 0 -0.953125 -0.25q-0.28125 -0.265625 -0.28125 -0.6875q0 -0.40625 0.28125 -0.65625q0.28125 -0.265625 0.953125 -0.265625l2.546875 0zm8.914368 8.265621l0 -0.4375q-0.703125 0.375 -1.5625 0.5625q-0.84375 0.1875 -1.53125 0.1875q-1.5 0 -2.4375 -0.796875q-0.9375 -0.796875 -0.9375 -1.765625q0 -1.171875 1.1875 -2.171875q1.203125 -1.0156212 3.3125 -1.0156212q0.859375 0 1.96875 0.1875l0 -0.453125q0 -0.421875 -0.359375 -0.6875q-0.359375 -0.265625 -1.375 -0.265625q-0.828125 0 -2.15625 0.328125q-0.484375 0.125 -0.765625 0.125q-0.359375 0 -0.625 -0.265625q-0.265625 -0.265625 -0.265625 -0.6875q0 -0.234375 0.09375 -0.40625q0.09375 -0.1875 0.25 -0.28125q0.171875 -0.109375 0.6875 -0.25q0.703125 -0.203125 1.421875 -0.3125q0.71875 -0.109375 1.296875 -0.109375q1.734375 0 2.6875 0.75q0.96875 0.75 0.96875 2.046875l0 3.8437462l0.328125 0q0.671875 0 0.953125 0.265625q0.296875 0.265625 0.296875 0.6875q0 0.40625 -0.296875 0.671875q-0.28125 0.25 -0.953125 0.25l-2.1875 0zm0 -3.34375q-1.125 -0.21875 -2.078125 -0.21875q-1.125 0 -1.953125 0.5625q-0.515625 0.34375 -0.515625 0.71875q0 0.265625 0.25 0.421875q0.453125 0.296875 1.25 0.296875q0.671875 0 1.515625 -0.265625q0.859375 -0.265625 1.53125 -0.71875l0 -0.796875zm9.117432 -4.921871l0 1.15625q1.1875 -0.84375 1.859375 -1.125q0.6875 -0.28125 1.265625 -0.28125q0.921875 0 1.78125 0.671875q0.578125 0.453125 0.578125 0.921875q0 0.40625 -0.28125 0.6875q-0.28125 0.28125 -0.671875 0.28125q-0.34375 0 -0.734375 -0.34375q-0.375 -0.359375 -0.671875 -0.359375q-0.390625 0 -1.171875 0.5q-0.78125 0.484375 -1.953125 1.4687462l0 2.8125l2.671875 0q0.671875 0 0.953125 0.265625q0.296875 0.265625 0.296875 0.6875q0 0.40625 -0.296875 0.671875q-0.28125 0.25 -0.953125 0.25l-5.640625 0q-0.671875 0 -0.96875 -0.25q-0.28125 -0.265625 -0.28125 -0.6875q0 -0.40625 0.28125 -0.671875q0.296875 -0.265625 0.96875 -0.265625l1.109375 0l0 -4.531246l-0.671875 0q-0.671875 0 -0.96875 -0.25q-0.28125 -0.265625 -0.28125 -0.6875q0 -0.40625 0.28125 -0.65625q0.296875 -0.265625 0.96875 -0.265625l2.53125 0zm12.258057 -3.546875l0 1.96875l-2.21875 0l0 -1.96875l2.21875 0zm0.25 3.546875l0 6.390621l2.25 0q0.671875 0 0.953125 0.265625q0.296875 0.265625 0.296875 0.6875q0 0.40625 -0.296875 0.671875q-0.28125 0.25 -0.953125 0.25l-6.359375 0q-0.671875 0 -0.953125 -0.25q-0.28125 -0.265625 -0.28125 -0.6875q0 -0.40625 0.28125 -0.671875q0.28125 -0.265625 0.953125 -0.265625l2.25 0l0 -4.531246l-1.5 0q-0.671875 0 -0.96875 -0.25q-0.28125 -0.265625 -0.28125 -0.6875q0 -0.40625 0.28125 -0.65625q0.296875 -0.265625 0.96875 -0.265625l3.359375 0zm15.133057 4.281246q0 1.078125 -0.609375 2.09375q-0.59375 1.0 -1.78125 1.59375q-1.171875 0.59375 -2.453125 0.59375q-1.265625 0 -2.4375 -0.578125q-1.171875 -0.59375 -1.78125 -1.59375q-0.609375 -1.015625 -0.609375 -2.125q0 -1.1249962 0.609375 -2.2031212q0.625 -1.078125 1.78125 -1.6875q1.171875 -0.625 2.4375 -0.625q1.28125 0 2.453125 0.640625q1.1875 0.625 1.78125 1.703125q0.609375 1.0625 0.609375 2.1874962zm-1.875 0.015625q0 -0.9062462 -0.640625 -1.6562462q-0.890625 -1.03125 -2.328125 -1.03125q-1.265625 0 -2.109375 0.8125q-0.84375 0.8125 -0.84375 1.8749962q0 0.875 0.84375 1.640625q0.859375 0.765625 2.109375 0.765625q1.265625 0 2.109375 -0.765625q0.859375 -0.765625 0.859375 -1.640625zm10.226868 -2.1093712q-0.453125 -0.296875 -0.953125 -0.4375q-0.5 -0.140625 -1.046875 -0.140625q-1.078125 0 -1.71875 0.359375q-0.28125 0.15625 -0.28125 0.34375q0 0.203125 0.375 0.40625q0.296875 0.140625 1.3125 0.28125q1.859375 0.25 2.578125 0.5156212q0.96875 0.328125 1.484375 1.0q0.515625 0.65625 0.515625 1.40625q0 1.0 -0.890625 1.671875q-1.265625 0.96875 -3.28125 0.96875q-0.8125 0 -1.5 -0.140625q-0.6875 -0.140625 -1.265625 -0.40625q-0.125 0.109375 -0.28125 0.171875q-0.15625 0.0625 -0.328125 0.0625q-0.4375 0 -0.703125 -0.28125q-0.25 -0.28125 -0.25 -0.953125l0 -0.640625q0 -0.671875 0.25 -0.953125q0.265625 -0.296875 0.6875 -0.296875q0.34375 0 0.5625 0.1875q0.234375 0.1875 0.359375 0.640625q0.421875 0.375 1.015625 0.5625q0.609375 0.1875 1.390625 0.1875q1.296875 0 2.0 -0.40625q0.34375 -0.203125 0.34375 -0.421875q0 -0.359375 -0.484375 -0.59375q-0.484375 -0.234375 -2.0 -0.40625q-2.25 -0.234375 -3.0 -0.90625q-0.765625 -0.6718712 -0.765625 -1.6406212q0 -1.0 0.859375 -1.671875q1.140625 -0.90625 3.0 -0.90625q0.640625 0 1.234375 0.125q0.609375 0.125 1.15625 0.375q0.171875 -0.125 0.3125 -0.1875q0.15625 -0.0625 0.28125 -0.0625q0.390625 0 0.640625 0.28125q0.25 0.28125 0.25 0.96875l0 0.453125q0 0.609375 -0.140625 0.828125q-0.296875 0.421875 -0.796875 0.421875q-0.328125 0 -0.59375 -0.203125q-0.25 -0.21875 -0.328125 -0.5625z" fill-rule="nonzero"/><path fill="#000000" fill-opacity="0.0" d="m567.6903 78.632545l222.36218 0l0 90.48818l-222.36218 0z" fill-rule="evenodd"/><path fill="#000000" d="m579.20593 95.3688l0 0.9375q0.640625 -0.65625 1.15625 -0.90625q0.53125 -0.25 1.171875 -0.25q0.703125 0 1.28125 0.296875q0.421875 0.21875 0.75 0.734375q0.328125 0.5 0.328125 1.046875l0 3.875l0.53125 0q0.21875 0 0.3125 0.078125q0.09375 0.078125 0.09375 0.21875q0 0.140625 -0.09375 0.234375q-0.09375 0.078125 -0.3125 0.078125l-1.65625 0q-0.21875 0 -0.328125 -0.078125q-0.09375 -0.09375 -0.09375 -0.234375q0 -0.140625 0.09375 -0.21875q0.109375 -0.078125 0.328125 -0.078125l0.515625 0l0 -3.78125q0 -0.65625 -0.484375 -1.09375q-0.46875 -0.453125 -1.265625 -0.453125q-0.609375 0 -1.0625 0.25q-0.4375 0.234375 -1.265625 1.21875l0 3.859375l0.6875 0q0.21875 0 0.3125 0.078125q0.109375 0.078125 0.109375 0.21875q0 0.140625 -0.109375 0.234375q-0.09375 0.078125 -0.3125 0.078125l-2.0 0q-0.21875 0 -0.3125 -0.078125q-0.09375 -0.09375 -0.09375 -0.234375q0 -0.140625 0.09375 -0.21875q0.09375 -0.078125 0.3125 -0.078125l0.6875 0l0 -5.109375l-0.515625 0q-0.21875 0 -0.3125 -0.078125q-0.09375 -0.09375 -0.09375 -0.234375q0 -0.140625 0.09375 -0.21875q0.09375 -0.09375 0.3125 -0.09375l1.140625 0zm14.42334 3.1875q0 1.40625 -1.015625 2.40625q-1.0 0.984375 -2.421875 0.984375q-1.4375 0 -2.4375 -1.0q-1.0 -1.0 -1.0 -2.390625q0 -1.40625 1.0 -2.40625q1.0 -1.0 2.4375 -1.0q1.421875 0 2.421875 1.0q1.015625 0.984375 1.015625 2.40625zm-0.625 0q0 -1.15625 -0.828125 -1.96875q-0.8125 -0.8125 -1.984375 -0.8125q-1.171875 0 -2.0 0.8125q-0.828125 0.8125 -0.828125 1.96875q0 1.140625 0.828125 1.96875q0.828125 0.8125 2.0 0.8125q1.171875 0 1.984375 -0.8125q0.828125 -0.8125 0.828125 -1.96875zm3.3920898 -3.1875l0 0.625q0.78125 -0.84375 1.578125 -0.84375q0.46875 0 0.828125 0.25q0.359375 0.25 0.59375 0.765625q0.421875 -0.515625 0.84375 -0.765625q0.421875 -0.25 0.84375 -0.25q0.65625 0 1.0625 0.4375q0.515625 0.546875 0.515625 1.203125l0 4.3125l0.515625 0q0.21875 0 0.3125 0.078125q0.109375 0.078125 0.109375 0.21875q0 0.140625 -0.109375 0.234375q-0.09375 0.078125 -0.3125 0.078125l-1.125 0l0 -4.859375q0 -0.46875 -0.296875 -0.765625q-0.28125 -0.3125 -0.65625 -0.3125q-0.328125 0 -0.703125 0.25q-0.375 0.25 -0.859375 1.0l0 4.078125l0.515625 0q0.21875 0 0.3125 0.078125q0.09375 0.078125 0.09375 0.21875q0 0.140625 -0.09375 0.234375q-0.09375 0.078125 -0.3125 0.078125l-1.140625 0l0 -4.8125q0 -0.484375 -0.296875 -0.796875q-0.28125 -0.328125 -0.640625 -0.328125q-0.328125 0 -0.640625 0.203125q-0.453125 0.3125 -0.9375 1.046875l0 4.078125l0.515625 0q0.21875 0 0.3125 0.078125q0.09375 0.078125 0.09375 0.21875q0 0.140625 -0.09375 0.234375q-0.09375 0.078125 -0.3125 0.078125l-1.65625 0q-0.21875 0 -0.3125 -0.078125q-0.09375 -0.09375 -0.09375 -0.234375q0 -0.140625 0.09375 -0.21875q0.09375 -0.078125 0.3125 -0.078125l0.515625 0l0 -5.109375l-0.515625 0q-0.21875 0 -0.3125 -0.078125q-0.09375 -0.09375 -0.09375 -0.234375q0 -0.140625 0.09375 -0.21875q0.09375 -0.09375 0.3125 -0.09375l1.140625 0zm15.126465 3.3125l-6.265625 0q0.15625 1.203125 1.0 1.9375q0.84375 0.71875 2.078125 0.71875q0.6875 0 1.4375 -0.21875q0.75 -0.234375 1.234375 -0.609375q0.140625 -0.109375 0.234375 -0.109375q0.125 0 0.203125 0.09375q0.09375 0.09375 0.09375 0.21875q0 0.125 -0.109375 0.234375q-0.359375 0.375 -1.265625 0.6875q-0.890625 0.3125 -1.828125 0.3125q-1.59375 0 -2.65625 -1.03125q-1.046875 -1.03125 -1.046875 -2.5q0 -1.34375 0.984375 -2.296875q1.0 -0.96875 2.46875 -0.96875q1.5 0 2.46875 0.984375q0.984375 0.984375 0.96875 2.546875zm-0.625 -0.609375q-0.171875 -1.03125 -0.953125 -1.65625q-0.78125 -0.640625 -1.859375 -0.640625q-1.078125 0 -1.859375 0.625q-0.765625 0.625 -0.96875 1.671875l5.640625 0z" fill-rule="nonzero"/><path fill="#000000" d="m578.39343 112.968796l0 0.625q0.78125 -0.84375 1.578125 -0.84375q0.46875 0 0.828125 0.25q0.359375 0.25 0.59375 0.765625q0.421875 -0.515625 0.84375 -0.765625q0.421875 -0.25 0.84375 -0.25q0.65625 0 1.0625 0.4375q0.515625 0.546875 0.515625 1.203125l0 4.3125l0.515625 0q0.21875 0 0.3125 0.078125q0.109375 0.078125 0.109375 0.21875q0 0.140625 -0.109375 0.234375q-0.09375 0.078125 -0.3125 0.078125l-1.125 0l0 -4.859375q0 -0.46875 -0.296875 -0.765625q-0.28125 -0.3125 -0.65625 -0.3125q-0.328125 0 -0.703125 0.25q-0.375 0.25 -0.859375 1.0l0 4.078125l0.515625 0q0.21875 0 0.3125 0.078125q0.09375 0.078125 0.09375 0.21875q0 0.140625 -0.09375 0.234375q-0.09375 0.078125 -0.3125 0.078125l-1.140625 0l0 -4.8125q0 -0.484375 -0.296875 -0.796875q-0.28125 -0.328125 -0.640625 -0.328125q-0.328125 0 -0.640625 0.203125q-0.453125 0.3125 -0.9375 1.046875l0 4.078125l0.515625 0q0.21875 0 0.3125 0.078125q0.09375 0.078125 0.09375 0.21875q0 0.140625 -0.09375 0.234375q-0.09375 0.078125 -0.3125 0.078125l-1.65625 0q-0.21875 0 -0.3125 -0.078125q-0.09375 -0.09375 -0.09375 -0.234375q0 -0.140625 0.09375 -0.21875q0.09375 -0.078125 0.3125 -0.078125l0.515625 0l0 -5.109375l-0.515625 0q-0.21875 0 -0.3125 -0.078125q-0.09375 -0.09375 -0.09375 -0.234375q0 -0.140625 0.09375 -0.21875q0.09375 -0.09375 0.3125 -0.09375l1.140625 0zm13.563965 6.34375l0 -0.890625q-1.34375 1.125 -2.859375 1.125q-1.109375 0 -1.734375 -0.546875q-0.609375 -0.5625 -0.609375 -1.375q0 -0.890625 0.8125 -1.5625q0.828125 -0.671875 2.390625 -0.671875q0.421875 0 0.921875 0.0625q0.5 0.046875 1.078125 0.171875l0 -1.0q0 -0.5 -0.46875 -0.875q-0.46875 -0.375 -1.40625 -0.375q-0.71875 0 -2.015625 0.421875q-0.234375 0.0625 -0.296875 0.0625q-0.109375 0 -0.203125 -0.078125q-0.078125 -0.09375 -0.078125 -0.21875q0 -0.125 0.078125 -0.203125q0.09375 -0.109375 0.828125 -0.296875q1.140625 -0.3125 1.71875 -0.3125q1.171875 0 1.8125 0.578125q0.65625 0.578125 0.65625 1.296875l0 4.078125l0.828125 0q0.21875 0 0.3125 0.078125q0.09375 0.078125 0.09375 0.21875q0 0.140625 -0.09375 0.234375q-0.09375 0.078125 -0.3125 0.078125l-1.453125 0zm0 -3.0625q-0.421875 -0.125 -0.90625 -0.171875q-0.484375 -0.0625 -1.015625 -0.0625q-1.34375 0 -2.109375 0.578125q-0.5625 0.421875 -0.5625 1.03125q0 0.546875 0.4375 0.9375q0.4375 0.375 1.265625 0.375q0.796875 0 1.484375 -0.3125q0.6875 -0.328125 1.40625 -1.015625l0 -1.359375zm5.970215 -3.28125l3.34375 0q0.21875 0 0.3125 0.09375q0.09375 0.078125 0.09375 0.21875q0 0.140625 -0.09375 0.234375q-0.09375 0.078125 -0.3125 0.078125l-3.34375 0l0 4.09375q0 0.53125 0.421875 0.890625q0.4375 0.359375 1.265625 0.359375q0.625 0 1.34375 -0.1875q0.734375 -0.1875 1.125 -0.421875q0.15625 -0.09375 0.25 -0.09375q0.109375 0 0.203125 0.09375q0.09375 0.09375 0.09375 0.21875q0 0.109375 -0.09375 0.203125q-0.234375 0.234375 -1.140625 0.515625q-0.90625 0.28125 -1.734375 0.28125q-1.078125 0 -1.71875 -0.5q-0.640625 -0.5 -0.640625 -1.359375l0 -4.09375l-1.125 0q-0.21875 0 -0.328125 -0.078125q-0.09375 -0.09375 -0.09375 -0.234375q0 -0.140625 0.09375 -0.21875q0.109375 -0.09375 0.328125 -0.09375l1.125 0l0 -1.8125q0 -0.21875 0.09375 -0.3125q0.09375 -0.09375 0.21875 -0.09375q0.140625 0 0.21875 0.09375q0.09375 0.09375 0.09375 0.3125l0 1.8125zm9.532715 0l0 1.546875q1.203125 -1.078125 1.796875 -1.390625q0.59375 -0.3125 1.109375 -0.3125q0.546875 0 1.015625 0.375q0.46875 0.375 0.46875 0.5625q0 0.140625 -0.09375 0.234375q-0.09375 0.078125 -0.21875 0.078125q-0.078125 0 -0.140625 -0.015625q-0.046875 -0.03125 -0.1875 -0.171875q-0.25 -0.25 -0.4375 -0.34375q-0.1875 -0.09375 -0.375 -0.09375q-0.40625 0 -0.984375 0.328125q-0.5625 0.3125 -1.953125 1.5625l0 3.375l2.71875 0q0.234375 0 0.328125 0.078125q0.09375 0.078125 0.09375 0.21875q0 0.140625 -0.09375 0.234375q-0.09375 0.078125 -0.328125 0.078125l-4.828125 0q-0.21875 0 -0.3125 -0.078125q-0.09375 -0.09375 -0.09375 -0.21875q0 -0.125 0.09375 -0.203125q0.09375 -0.09375 0.3125 -0.09375l1.5 0l0 -5.125l-1.140625 0q-0.21875 0 -0.3125 -0.078125q-0.09375 -0.09375 -0.09375 -0.234375q0 -0.140625 0.078125 -0.21875q0.09375 -0.09375 0.328125 -0.09375l1.75 0zm10.04834 -3.15625l0 1.59375l-0.921875 0l0 -1.59375l0.921875 0zm0.015625 3.15625l0 5.734375l2.421875 0q0.21875 0 0.3125 0.078125q0.09375 0.078125 0.09375 0.21875q0 0.140625 -0.09375 0.234375q-0.09375 0.078125 -0.3125 0.078125l-5.453125 0q-0.21875 0 -0.3125 -0.078125q-0.09375 -0.09375 -0.09375 -0.234375q0 -0.140625 0.09375 -0.21875q0.09375 -0.078125 0.3125 -0.078125l2.421875 0l0 -5.109375l-1.796875 0q-0.21875 0 -0.328125 -0.078125q-0.09375 -0.09375 -0.09375 -0.234375q0 -0.140625 0.09375 -0.21875q0.09375 -0.09375 0.328125 -0.09375l2.40625 0zm11.23584 0.625l0 -0.203125q0 -0.234375 0.09375 -0.328125q0.09375 -0.09375 0.21875 -0.09375q0.140625 0 0.21875 0.09375q0.09375 0.09375 0.09375 0.328125l0 1.390625q0 0.21875 -0.09375 0.328125q-0.078125 0.09375 -0.21875 0.09375q-0.125 0 -0.21875 -0.078125q-0.078125 -0.09375 -0.09375 -0.296875q-0.03125 -0.515625 -0.671875 -0.984375q-0.640625 -0.46875 -1.734375 -0.46875q-1.375 0 -2.078125 0.859375q-0.703125 0.859375 -0.703125 1.953125q0 1.203125 0.78125 1.984375q0.78125 0.765625 2.03125 0.765625q0.703125 0 1.453125 -0.265625q0.75 -0.265625 1.34375 -0.84375q0.15625 -0.15625 0.265625 -0.15625q0.125 0 0.203125 0.09375q0.09375 0.078125 0.09375 0.203125q0 0.3125 -0.734375 0.796875q-1.203125 0.78125 -2.65625 0.78125q-1.484375 0 -2.453125 -0.9375q-0.953125 -0.953125 -0.953125 -2.40625q0 -1.484375 0.96875 -2.46875q0.984375 -0.984375 2.46875 -0.984375q1.421875 0 2.375 0.84375zm8.54834 5.71875l0 -0.90625q-1.265625 1.140625 -2.734375 1.140625q-0.890625 0 -1.359375 -0.484375q-0.609375 -0.640625 -0.609375 -1.5l0 -3.96875l-0.828125 0q-0.21875 0 -0.3125 -0.078125q-0.09375 -0.09375 -0.09375 -0.234375q0 -0.140625 0.09375 -0.21875q0.09375 -0.09375 0.3125 -0.09375l1.4375 0l0 4.59375q0 0.59375 0.375 0.984375q0.390625 0.390625 0.96875 0.390625q1.5 0 2.75 -1.375l0 -3.96875l-1.140625 0q-0.21875 0 -0.3125 -0.078125q-0.09375 -0.09375 -0.09375 -0.234375q0 -0.140625 0.09375 -0.21875q0.09375 -0.09375 0.3125 -0.09375l1.75 0l0 5.734375l0.515625 0q0.234375 0 0.328125 0.078125q0.09375 0.078125 0.09375 0.21875q0 0.140625 -0.09375 0.234375q-0.09375 0.078125 -0.328125 0.078125l-1.125 0zm7.20459 -9.1875l0 8.578125l2.421875 0q0.21875 0 0.3125 0.078125q0.09375 0.078125 0.09375 0.21875q0 0.140625 -0.09375 0.234375q-0.09375 0.078125 -0.3125 0.078125l-5.453125 0q-0.21875 0 -0.3125 -0.078125q-0.09375 -0.09375 -0.09375 -0.234375q0 -0.140625 0.09375 -0.21875q0.09375 -0.078125 0.3125 -0.078125l2.421875 0l0 -7.953125l-1.78125 0q-0.21875 0 -0.328125 -0.09375q-0.09375 -0.09375 -0.09375 -0.234375q0 -0.125 0.09375 -0.203125q0.109375 -0.09375 0.328125 -0.09375l2.390625 0zm10.45459 9.1875l0 -0.890625q-1.34375 1.125 -2.859375 1.125q-1.109375 0 -1.734375 -0.546875q-0.609375 -0.5625 -0.609375 -1.375q0 -0.890625 0.8125 -1.5625q0.828125 -0.671875 2.390625 -0.671875q0.421875 0 0.921875 0.0625q0.5 0.046875 1.078125 0.171875l0 -1.0q0 -0.5 -0.46875 -0.875q-0.46875 -0.375 -1.40625 -0.375q-0.71875 0 -2.015625 0.421875q-0.234375 0.0625 -0.296875 0.0625q-0.109375 0 -0.203125 -0.078125q-0.078125 -0.09375 -0.078125 -0.21875q0 -0.125 0.078125 -0.203125q0.09375 -0.109375 0.828125 -0.296875q1.140625 -0.3125 1.71875 -0.3125q1.171875 0 1.8125 0.578125q0.65625 0.578125 0.65625 1.296875l0 4.078125l0.828125 0q0.21875 0 0.3125 0.078125q0.09375 0.078125 0.09375 0.21875q0 0.140625 -0.09375 0.234375q-0.09375 0.078125 -0.3125 0.078125l-1.453125 0zm0 -3.0625q-0.421875 -0.125 -0.90625 -0.171875q-0.484375 -0.0625 -1.015625 -0.0625q-1.34375 0 -2.109375 0.578125q-0.5625 0.421875 -0.5625 1.03125q0 0.546875 0.4375 0.9375q0.4375 0.375 1.265625 0.375q0.796875 0 1.484375 -0.3125q0.6875 -0.328125 1.40625 -1.015625l0 -1.359375z" fill-rule="nonzero"/><path fill="#000000" d="m583.58093 131.6938l0 -1.125l1.4375 0q0.234375 0 0.328125 0.09375q0.09375 0.078125 0.09375 0.21875q0 0.140625 -0.09375 0.234375q-0.09375 0.078125 -0.328125 0.078125l-0.828125 0l0 7.9375l0.828125 0q0.234375 0 0.328125 0.078125q0.09375 0.078125 0.09375 0.21875q0 0.140625 -0.09375 0.21875q-0.09375 0.09375 -0.328125 0.09375l-2.9375 0q-0.21875 0 -0.3125 -0.09375q-0.09375 -0.078125 -0.09375 -0.21875q0 -0.140625 0.09375 -0.21875q0.09375 -0.078125 0.3125 -0.078125l1.5 0l0 -3.71875q-1.03125 1.34375 -2.671875 1.34375q-1.390625 0 -2.34375 -0.9375q-0.9375 -0.9375 -0.9375 -2.265625q0 -1.328125 0.9375 -2.265625q0.953125 -0.9375 2.34375 -0.9375q1.640625 0 2.671875 1.34375zm0 1.859375q0 -1.0625 -0.78125 -1.8125q-0.78125 -0.765625 -1.890625 -0.765625q-1.109375 0 -1.890625 0.765625q-0.78125 0.75 -0.78125 1.8125q0 1.0625 0.78125 1.828125q0.78125 0.75 1.890625 0.75q1.109375 0 1.890625 -0.75q0.78125 -0.765625 0.78125 -1.828125zm8.720215 3.359375l0 -0.90625q-1.265625 1.140625 -2.734375 1.140625q-0.890625 0 -1.359375 -0.484375q-0.609375 -0.640625 -0.609375 -1.5l0 -3.96875l-0.828125 0q-0.21875 0 -0.3125 -0.078125q-0.09375 -0.09375 -0.09375 -0.234375q0 -0.140625 0.09375 -0.21875q0.09375 -0.09375 0.3125 -0.09375l1.4375 0l0 4.59375q0 0.59375 0.375 0.984375q0.390625 0.390625 0.96875 0.390625q1.5 0 2.75 -1.375l0 -3.96875l-1.140625 0q-0.21875 0 -0.3125 -0.078125q-0.09375 -0.09375 -0.09375 -0.234375q0 -0.140625 0.09375 -0.21875q0.09375 -0.09375 0.3125 -0.09375l1.75 0l0 5.734375l0.515625 0q0.234375 0 0.328125 0.078125q0.09375 0.078125 0.09375 0.21875q0 0.140625 -0.09375 0.234375q-0.09375 0.078125 -0.328125 0.078125l-1.125 0zm8.657715 0l0 -0.890625q-1.34375 1.125 -2.859375 1.125q-1.109375 0 -1.734375 -0.546875q-0.609375 -0.5625 -0.609375 -1.375q0 -0.890625 0.8125 -1.5625q0.828125 -0.671875 2.390625 -0.671875q0.421875 0 0.921875 0.0625q0.5 0.046875 1.078125 0.171875l0 -1.0q0 -0.5 -0.46875 -0.875q-0.46875 -0.375 -1.40625 -0.375q-0.71875 0 -2.015625 0.421875q-0.234375 0.0625 -0.296875 0.0625q-0.109375 0 -0.203125 -0.078125q-0.078125 -0.09375 -0.078125 -0.21875q0 -0.125 0.078125 -0.203125q0.09375 -0.109375 0.828125 -0.296875q1.140625 -0.3125 1.71875 -0.3125q1.171875 0 1.8125 0.578125q0.65625 0.578125 0.65625 1.296875l0 4.078125l0.828125 0q0.21875 0 0.3125 0.078125q0.09375 0.078125 0.09375 0.21875q0 0.140625 -0.09375 0.234375q-0.09375 0.078125 -0.3125 0.078125l-1.453125 0zm0 -3.0625q-0.421875 -0.125 -0.90625 -0.171875q-0.484375 -0.0625 -1.015625 -0.0625q-1.34375 0 -2.109375 0.578125q-0.5625 0.421875 -0.5625 1.03125q0 0.546875 0.4375 0.9375q0.4375 0.375 1.265625 0.375q0.796875 0 1.484375 -0.3125q0.6875 -0.328125 1.40625 -1.015625l0 -1.359375zm5.251465 -3.28125l0 0.9375q0.640625 -0.65625 1.15625 -0.90625q0.53125 -0.25 1.171875 -0.25q0.703125 0 1.28125 0.296875q0.421875 0.21875 0.75 0.734375q0.328125 0.5 0.328125 1.046875l0 3.875l0.53125 0q0.21875 0 0.3125 0.078125q0.09375 0.078125 0.09375 0.21875q0 0.140625 -0.09375 0.234375q-0.09375 0.078125 -0.3125 0.078125l-1.65625 0q-0.21875 0 -0.328125 -0.078125q-0.09375 -0.09375 -0.09375 -0.234375q0 -0.140625 0.09375 -0.21875q0.109375 -0.078125 0.328125 -0.078125l0.515625 0l0 -3.78125q0 -0.65625 -0.484375 -1.09375q-0.46875 -0.453125 -1.265625 -0.453125q-0.609375 0 -1.0625 0.25q-0.4375 0.234375 -1.265625 1.21875l0 3.859375l0.6875 0q0.21875 0 0.3125 0.078125q0.109375 0.078125 0.109375 0.21875q0 0.140625 -0.109375 0.234375q-0.09375 0.078125 -0.3125 0.078125l-2.0 0q-0.21875 0 -0.3125 -0.078125q-0.09375 -0.09375 -0.09375 -0.234375q0 -0.140625 0.09375 -0.21875q0.09375 -0.078125 0.3125 -0.078125l0.6875 0l0 -5.109375l-0.515625 0q-0.21875 0 -0.3125 -0.078125q-0.09375 -0.09375 -0.09375 -0.234375q0 -0.140625 0.09375 -0.21875q0.09375 -0.09375 0.3125 -0.09375l1.140625 0zm9.720215 0l3.34375 0q0.21875 0 0.3125 0.09375q0.09375 0.078125 0.09375 0.21875q0 0.140625 -0.09375 0.234375q-0.09375 0.078125 -0.3125 0.078125l-3.34375 0l0 4.09375q0 0.53125 0.421875 0.890625q0.4375 0.359375 1.265625 0.359375q0.625 0 1.34375 -0.1875q0.734375 -0.1875 1.125 -0.421875q0.15625 -0.09375 0.25 -0.09375q0.109375 0 0.203125 0.09375q0.09375 0.09375 0.09375 0.21875q0 0.109375 -0.09375 0.203125q-0.234375 0.234375 -1.140625 0.515625q-0.90625 0.28125 -1.734375 0.28125q-1.078125 0 -1.71875 -0.5q-0.640625 -0.5 -0.640625 -1.359375l0 -4.09375l-1.125 0q-0.21875 0 -0.328125 -0.078125q-0.09375 -0.09375 -0.09375 -0.234375q0 -0.140625 0.09375 -0.21875q0.109375 -0.09375 0.328125 -0.09375l1.125 0l0 -1.8125q0 -0.21875 0.09375 -0.3125q0.09375 -0.09375 0.21875 -0.09375q0.140625 0 0.21875 0.09375q0.09375 0.09375 0.09375 0.3125l0 1.8125zm10.57959 -3.1562576l0 1.5937576l-0.921875 0l0 -1.5937576l0.921875 0zm0.015625 3.1562576l0 5.734375l2.421875 0q0.21875 0 0.3125 0.078125q0.09375 0.078125 0.09375 0.21875q0 0.140625 -0.09375 0.234375q-0.09375 0.078125 -0.3125 0.078125l-5.453125 0q-0.21875 0 -0.3125 -0.078125q-0.09375 -0.09375 -0.09375 -0.234375q0 -0.140625 0.09375 -0.21875q0.09375 -0.078125 0.3125 -0.078125l2.421875 0l0 -5.109375l-1.796875 0q-0.21875 0 -0.328125 -0.078125q-0.09375 -0.09375 -0.09375 -0.234375q0 -0.140625 0.09375 -0.21875q0.09375 -0.09375 0.328125 -0.09375l2.40625 0zm11.688965 -2.8437576l0 8.578133l0.8125 0q0.234375 0 0.328125 0.078125q0.09375 0.078125 0.09375 0.21875q0 0.140625 -0.09375 0.234375q-0.09375 0.078125 -0.328125 0.078125l-1.4375 0l0 -1.21875q-1.0625 1.453125 -2.71875 1.453125q-0.828125 0 -1.59375 -0.4375q-0.765625 -0.4375 -1.21875 -1.25q-0.4375 -0.828125 -0.4375 -1.703125q0 -0.875 0.4375 -1.6875q0.453125 -0.828125 1.21875 -1.265625q0.765625 -0.453125 1.609375 -0.453125q1.609375 0 2.703125 1.46875l0 -3.46875l-0.8125 0q-0.234375 0 -0.328125 -0.09375q-0.09375 -0.09375 -0.09375 -0.234375q0 -0.12500763 0.09375 -0.20313263q0.09375 -0.09375 0.328125 -0.09375l1.4375 0zm-0.625 6.0312576q0 -1.171875 -0.796875 -1.96875q-0.78125 -0.8125 -1.875 -0.8125q-1.09375 0 -1.890625 0.8125q-0.796875 0.796875 -0.796875 1.96875q0 1.15625 0.796875 1.96875q0.796875 0.8125 1.890625 0.8125q1.09375 0 1.875 -0.8125q0.796875 -0.8125 0.796875 -1.96875zm8.376465 3.15625l0 -0.890625q-1.34375 1.125 -2.859375 1.125q-1.109375 0 -1.734375 -0.546875q-0.609375 -0.5625 -0.609375 -1.375q0 -0.890625 0.8125 -1.5625q0.828125 -0.671875 2.390625 -0.671875q0.421875 0 0.921875 0.0625q0.5 0.046875 1.078125 0.171875l0 -1.0q0 -0.5 -0.46875 -0.875q-0.46875 -0.375 -1.40625 -0.375q-0.71875 0 -2.015625 0.421875q-0.234375 0.0625 -0.296875 0.0625q-0.109375 0 -0.203125 -0.078125q-0.078125 -0.09375 -0.078125 -0.21875q0 -0.125 0.078125 -0.203125q0.09375 -0.109375 0.828125 -0.296875q1.140625 -0.3125 1.71875 -0.3125q1.171875 0 1.8125 0.578125q0.65625 0.578125 0.65625 1.296875l0 4.078125l0.828125 0q0.21875 0 0.3125 0.078125q0.09375 0.078125 0.09375 0.21875q0 0.140625 -0.09375 0.234375q-0.09375 0.078125 -0.3125 0.078125l-1.453125 0zm0 -3.0625q-0.421875 -0.125 -0.90625 -0.171875q-0.484375 -0.0625 -1.015625 -0.0625q-1.34375 0 -2.109375 0.578125q-0.5625 0.421875 -0.5625 1.03125q0 0.546875 0.4375 0.9375q0.4375 0.375 1.265625 0.375q0.796875 0 1.484375 -0.3125q0.6875 -0.328125 1.40625 -1.015625l0 -1.359375zm10.251465 -6.1250076l0 8.578133l0.8125 0q0.234375 0 0.328125 0.078125q0.09375 0.078125 0.09375 0.21875q0 0.140625 -0.09375 0.234375q-0.09375 0.078125 -0.328125 0.078125l-1.4375 0l0 -1.21875q-1.0625 1.453125 -2.71875 1.453125q-0.828125 0 -1.59375 -0.4375q-0.765625 -0.4375 -1.21875 -1.25q-0.4375 -0.828125 -0.4375 -1.703125q0 -0.875 0.4375 -1.6875q0.453125 -0.828125 1.21875 -1.265625q0.765625 -0.453125 1.609375 -0.453125q1.609375 0 2.703125 1.46875l0 -3.46875l-0.8125 0q-0.234375 0 -0.328125 -0.09375q-0.09375 -0.09375 -0.09375 -0.234375q0 -0.12500763 0.09375 -0.20313263q0.09375 -0.09375 0.328125 -0.09375l1.4375 0zm-0.625 6.0312576q0 -1.171875 -0.796875 -1.96875q-0.78125 -0.8125 -1.875 -0.8125q-1.09375 0 -1.890625 0.8125q-0.796875 0.796875 -0.796875 1.96875q0 1.15625 0.796875 1.96875q0.796875 0.8125 1.890625 0.8125q1.09375 0 1.875 -0.8125q0.796875 -0.8125 0.796875 -1.96875zm9.938965 0.125l-6.265625 0q0.15625 1.203125 1.0 1.9375q0.84375 0.71875 2.078125 0.71875q0.6875 0 1.4375 -0.21875q0.75 -0.234375 1.234375 -0.609375q0.140625 -0.109375 0.234375 -0.109375q0.125 0 0.203125 0.09375q0.09375 0.09375 0.09375 0.21875q0 0.125 -0.109375 0.234375q-0.359375 0.375 -1.265625 0.6875q-0.890625 0.3125 -1.828125 0.3125q-1.59375 0 -2.65625 -1.03125q-1.046875 -1.03125 -1.046875 -2.5q0 -1.34375 0.984375 -2.296875q1.0 -0.96875 2.46875 -0.96875q1.5 0 2.46875 0.984375q0.984375 0.984375 0.96875 2.546875zm-0.625 -0.609375q-0.171875 -1.03125 -0.953125 -1.65625q-0.78125 -0.640625 -1.859375 -0.640625q-1.078125 0 -1.859375 0.625q-0.765625 0.625 -0.96875 1.671875l5.640625 0z" fill-rule="nonzero"/><path fill="#000000" fill-opacity="0.0" d="m568.3517 237.45407l221.7008 0" fill-rule="evenodd"/><path stroke="#000000" stroke-width="1.0" stroke-linejoin="round" stroke-linecap="butt" d="m568.3517 237.45407l221.7008 0" fill-rule="evenodd"/><path fill="#000000" fill-opacity="0.0" d="m89.44882 436.77692l222.36221 0l0 42.015747l-222.36221 0z" fill-rule="evenodd"/><path fill="#0000ff" d="m114.346596 462.66565l0 3.0625l1.125 0q0.671875 0 0.953125 0.25q0.28125 0.265625 0.28125 0.6875q0 0.40625 -0.28125 0.671875q-0.28125 0.265625 -0.953125 0.265625l-3.3125 0q-0.671875 0 -0.96875 -0.265625q-0.28125 -0.265625 -0.28125 -0.671875q0 -0.421875 0.28125 -0.6875q0.296875 -0.25 0.96875 -0.25l0.3125 0l0 -8.4375l-0.3125 0q-0.671875 0 -0.96875 -0.25q-0.28125 -0.265625 -0.28125 -0.6875q0 -0.40625 0.28125 -0.65625q0.296875 -0.265625 0.96875 -0.265625l2.1875 0l0 0.625q0.65625 -0.4375 1.359375 -0.65625q0.703125 -0.21875 1.4375 -0.21875q1.90625 0 3.25 1.296875q1.359375 1.296875 1.359375 2.96875q0 1.859375 -1.59375 3.0625q-1.328125 1.0 -3.0 1.0q-0.71875 0 -1.421875 -0.203125q-0.703125 -0.21875 -1.390625 -0.640625zm5.53125 -3.203125q0 -0.390625 -0.3125 -1.0q-0.296875 -0.609375 -0.9375 -1.015625q-0.640625 -0.40625 -1.515625 -0.40625q-1.390625 0 -2.21875 1.046875q-0.546875 0.734375 -0.546875 1.390625q0 0.75 0.796875 1.453125q0.796875 0.703125 1.96875 0.703125q1.1875 0 1.96875 -0.703125q0.796875 -0.703125 0.796875 -1.46875zm11.945564 -4.03125l0 6.390625q0.59375 0 0.875 0.265625q0.28125 0.265625 0.28125 0.6875q0 0.40625 -0.296875 0.671875q-0.28125 0.25 -0.953125 0.25l-1.765625 0l0 -0.421875q-0.8125 0.359375 -1.546875 0.53125q-0.7187424 0.1875 -1.3749924 0.1875q-0.921875 0 -1.59375 -0.375q-0.671875 -0.390625 -1.0625 -1.078125q-0.28125 -0.5 -0.28125 -1.234375l0 -4.015625l-0.328125 0q-0.671875 0 -0.96875 -0.25q-0.28125 -0.265625 -0.28125 -0.6875q0 -0.40625 0.28125 -0.65625q0.296875 -0.265625 0.96875 -0.265625l2.1875 0l0 5.546875q0 0.59375 0.28125 0.875q0.296875 0.28125 0.890625 0.28125q0.5625 0 1.2031174 -0.21875q0.65625 -0.234375 1.625 -0.8125l0 -3.8125l-0.6875 0q-0.671875 0 -0.953125 -0.25q-0.28125 -0.265625 -0.28125 -0.6875q0 -0.40625 0.28125 -0.65625q0.28125 -0.265625 0.953125 -0.265625l2.546875 0zm4.883072 -3.546875l0 4.1875q0.671875 -0.453125 1.375 -0.671875q0.71875 -0.21875 1.4375 -0.21875q1.9375 0 3.28125 1.34375q1.34375 1.328125 1.34375 3.234375q0 1.8125 -1.28125 3.03125q-1.28125 1.203125 -3.390625 1.203125q-0.734375 0 -1.4375 -0.1875q-0.6875 -0.1875 -1.328125 -0.5625l0 0.453125l-2.1875 0q-0.6875 0 -0.96875 -0.25q-0.28125 -0.265625 -0.28125 -0.6875q0 -0.40625 0.28125 -0.671875q0.296875 -0.265625 0.96875 -0.265625l0.3125 0l0 -8.078125l-0.3125 0q-0.6875 0 -0.96875 -0.25q-0.28125 -0.265625 -0.28125 -0.6875q0 -0.40625 0.28125 -0.65625q0.28125 -0.265625 0.96875 -0.265625l2.1875 0zm5.578125 7.921875q0 -1.15625 -0.8125 -1.953125q-0.8125 -0.8125 -1.984375 -0.8125q-1.171875 0 -1.984375 0.8125q-0.796875 0.796875 -0.796875 1.921875q0 1.03125 0.71875 1.703125q0.734375 0.65625 2.0625 0.65625q1.328125 0 2.0625 -0.65625q0.734375 -0.671875 0.734375 -1.671875zm8.898697 -7.921875l0 9.9375l2.234375 0q0.6875 0 0.96875 0.265625q0.28125 0.265625 0.28125 0.6875q0 0.40625 -0.28125 0.671875q-0.28125 0.25 -0.96875 0.25l-6.34375 0q-0.671875 0 -0.96875 -0.25q-0.28125 -0.265625 -0.28125 -0.6875q0 -0.40625 0.28125 -0.671875q0.296875 -0.265625 0.96875 -0.265625l2.25 0l0 -8.078125l-1.515625 0q-0.65625 0 -0.953125 -0.25q-0.296875 -0.265625 -0.296875 -0.6875q0 -0.40625 0.28125 -0.65625q0.296875 -0.265625 0.96875 -0.265625l3.375 0zm10.929947 0l0 1.96875l-2.21875 0l0 -1.96875l2.21875 0zm0.25 3.546875l0 6.390625l2.25 0q0.671875 0 0.953125 0.265625q0.296875 0.265625 0.296875 0.6875q0 0.40625 -0.296875 0.671875q-0.28125 0.25 -0.953125 0.25l-6.359375 0q-0.671875 0 -0.953125 -0.25q-0.28125 -0.265625 -0.28125 -0.6875q0 -0.40625 0.28125 -0.671875q0.28125 -0.265625 0.953125 -0.265625l2.25 0l0 -4.53125l-1.5 0q-0.671875 0 -0.96875 -0.25q-0.28125 -0.265625 -0.28125 -0.6875q0 -0.40625 0.28125 -0.65625q0.296875 -0.265625 0.96875 -0.265625l3.359375 0zm15.133072 4.28125q0 1.078125 -0.609375 2.09375q-0.59375 1.0 -1.78125 1.59375q-1.171875 0.59375 -2.453125 0.59375q-1.265625 0 -2.4375 -0.578125q-1.171875 -0.59375 -1.78125 -1.59375q-0.609375 -1.015625 -0.609375 -2.125q0 -1.125 0.609375 -2.203125q0.625 -1.078125 1.78125 -1.6875q1.171875 -0.625 2.4375 -0.625q1.28125 0 2.453125 0.640625q1.1875 0.625 1.78125 1.703125q0.609375 1.0625 0.609375 2.1875zm-1.875 0.015625q0 -0.90625 -0.640625 -1.65625q-0.890625 -1.03125 -2.328125 -1.03125q-1.265625 0 -2.109375 0.8125q-0.84375 0.8125 -0.84375 1.875q0 0.875 0.84375 1.640625q0.859375 0.765625 2.109375 0.765625q1.265625 0 2.109375 -0.765625q0.859375 -0.765625 0.859375 -1.640625zm10.867447 -2.0q0.71875 0.5625 1.078125 1.265625q0.359375 0.703125 0.359375 1.546875q0 0.9375 -0.46875 1.734375q-0.453125 0.78125 -1.4375 1.234375q-0.984375 0.453125 -2.1875 0.453125q-1.203125 0 -2.171875 -0.453125q-0.96875 -0.453125 -1.421875 -1.234375q-0.453125 -0.796875 -0.453125 -1.734375q0 -0.84375 0.359375 -1.546875q0.359375 -0.703125 1.078125 -1.265625q-0.640625 -0.578125 -0.953125 -1.234375q-0.3125 -0.65625 -0.3125 -1.390625q0 -1.421875 1.09375 -2.453125q1.09375 -1.046875 2.796875 -1.046875q1.71875 0 2.8125 1.046875q1.09375 1.03125 1.09375 2.453125q0 0.734375 -0.328125 1.390625q-0.3125 0.65625 -0.9375 1.234375zm-0.65625 -2.578125q0 -0.703125 -0.546875 -1.1875q-0.53125 -0.484375 -1.453125 -0.484375q-0.921875 0 -1.46875 0.484375q-0.546875 0.484375 -0.546875 1.1875q0 0.6875 0.546875 1.1875q0.546875 0.484375 1.46875 0.484375q0.921875 0 1.453125 -0.484375q0.546875 -0.5 0.546875 -1.1875zm0.21875 5.484375q0 -0.734375 -0.640625 -1.328125q-0.625 -0.59375 -1.5625 -0.59375q-0.9375 0 -1.578125 0.59375q-0.625 0.59375 -0.625 1.34375q0 0.59375 0.546875 1.03125q0.546875 0.421875 1.65625 0.421875q1.125 0 1.65625 -0.421875q0.546875 -0.4375 0.546875 -1.046875zm7.414322 -6.859375l0 2.21875q1.03125 -0.328125 1.875 -0.328125q1.734375 0 2.859375 1.1875q1.140625 1.171875 1.140625 3.03125q0 1.90625 -1.15625 3.0q-1.140625 1.078125 -3.515625 1.078125q-2.09375 0 -3.328125 -0.78125q-0.703125 -0.453125 -0.703125 -1.046875q0 -0.375 0.28125 -0.65625q0.28125 -0.28125 0.65625 -0.28125q0.3125 0 0.6875 0.3125q0.375 0.296875 0.78125 0.421875q0.59375 0.171875 1.5 0.171875q1.703125 0 2.3125 -0.53125q0.625 -0.546875 0.625 -1.671875q0 -1.109375 -0.609375 -1.734375q-0.59375 -0.625 -1.53125 -0.625q-1.0 0 -2.296875 0.65625q-0.296875 0.15625 -0.515625 0.15625q-0.390625 0 -0.671875 -0.296875q-0.265625 -0.296875 -0.265625 -0.75l0 -5.390625l5.71875 0q0.671875 0 0.953125 0.265625q0.296875 0.25 0.296875 0.671875q0 0.40625 -0.296875 0.671875q-0.28125 0.25 -0.953125 0.25l-3.84375 0zm11.195572 0l0 2.21875q1.03125 -0.328125 1.875 -0.328125q1.734375 0 2.859375 1.1875q1.140625 1.171875 1.140625 3.03125q0 1.90625 -1.15625 3.0q-1.140625 1.078125 -3.515625 1.078125q-2.09375 0 -3.328125 -0.78125q-0.703125 -0.453125 -0.703125 -1.046875q0 -0.375 0.28125 -0.65625q0.28125 -0.28125 0.65625 -0.28125q0.3125 0 0.6875 0.3125q0.375 0.296875 0.78125 0.421875q0.59375 0.171875 1.5 0.171875q1.703125 0 2.3125 -0.53125q0.625 -0.546875 0.625 -1.671875q0 -1.109375 -0.609375 -1.734375q-0.59375 -0.625 -1.53125 -0.625q-1.0 0 -2.296875 0.65625q-0.296875 0.15625 -0.515625 0.15625q-0.390625 0 -0.671875 -0.296875q-0.265625 -0.296875 -0.265625 -0.75l0 -5.390625l5.71875 0q0.671875 0 0.953125 0.265625q0.296875 0.25 0.296875 0.671875q0 0.40625 -0.296875 0.671875q-0.28125 0.25 -0.953125 0.25l-3.84375 0zm15.492462 -1.859375l0 7.296875q0.59375 0 0.875 0.265625q0.28125 0.25 0.28125 0.671875q0 0.40625 -0.28125 0.671875q-0.28125 0.265625 -0.875 0.265625l0 0.734375q0.59375 0 0.875 0.265625q0.28125 0.265625 0.28125 0.6875q0 0.40625 -0.28125 0.671875q-0.28125 0.25 -0.953125 0.25l-2.515625 0q-0.67189026 0 -0.96876526 -0.25q-0.28125 -0.265625 -0.28125 -0.6875q0 -0.40625 0.28125 -0.671875q0.296875 -0.265625 0.96876526 -0.265625l0.734375 0l0 -0.734375l-5.0781403 0l0 -1.5625l4.4687653 -7.609375l2.46875 0zm-1.859375 7.296875l0 -4.59375l-2.7031403 4.59375l2.7031403 0zm8.586182 2.609375l4.078125 0q0.34375 -0.265625 0.640625 -0.265625q0.4375 0 0.6875 0.28125q0.25 0.28125 0.25 0.96875l0 0.890625l-8.515625 0l0 -1.984375q5.046875 -4.15625 6.09375 -5.34375q0.53125 -0.609375 0.53125 -1.15625q0 -0.6875 -0.59375 -1.203125q-0.59375 -0.53125 -1.59375 -0.53125q-1.0 0 -1.671875 0.578125q-0.34375 0.3125 -0.546875 0.921875q-0.125 0.390625 -0.359375 0.5625q-0.21875 0.15625 -0.546875 0.15625q-0.375 0 -0.65625 -0.265625q-0.28125 -0.28125 -0.28125 -0.65625q0 -0.546875 0.5 -1.359375q0.515625 -0.828125 1.484375 -1.3125q0.96875 -0.5 2.109375 -0.5q1.765625 0 2.890625 1.078125q1.125 1.0625 1.125 2.59375q0 0.765625 -0.328125 1.4375q-0.3125 0.65625 -1.546875 1.8125q-0.953125 0.921875 -3.75 3.296875zm14.867462 -8.046875l-4.28125 0q-0.03125 0.546875 -0.28125 0.796875q-0.25 0.234375 -0.640625 0.234375q-0.421875 0 -0.6875 -0.28125q-0.25 -0.28125 -0.25 -0.953125l0 -1.65625l8.09375 0l0 1.859375l-3.015625 9.0q-0.1875 0.5625 -0.421875 0.75q-0.234375 0.1875 -0.5625 0.1875q-0.390625 0 -0.671875 -0.265625q-0.28125 -0.28125 -0.28125 -0.640625q0 -0.1875 0.15625 -0.625l2.84375 -8.40625zm11.992432 -1.859375l0 7.296875q0.59375 0 0.875 0.265625q0.28125 0.25 0.28125 0.671875q0 0.40625 -0.28125 0.671875q-0.28125 0.265625 -0.875 0.265625l0 0.734375q0.59375 0 0.875 0.265625q0.28125 0.265625 0.28125 0.6875q0 0.40625 -0.28125 0.671875q-0.28125 0.25 -0.953125 0.25l-2.515625 0q-0.671875 0 -0.96875 -0.25q-0.28125 -0.265625 -0.28125 -0.6875q0 -0.40625 0.28125 -0.671875q0.296875 -0.265625 0.96875 -0.265625l0.734375 0l0 -0.734375l-5.078125 0l0 -1.5625l4.46875 -7.609375l2.46875 0zm-1.859375 7.296875l0 -4.59375l-2.703125 4.59375l2.703125 0zm14.398712 -2.453125l0 2.0625q0 1.8125 -1.0625 3.484375q-1.046875 1.65625 -3.0 1.65625q-1.125 0 -1.90625 -0.484375q-0.78125 -0.5 -1.484375 -1.828125q-0.6875 -1.34375 -0.6875 -2.828125l0 -2.0625q0 -1.8125 1.046875 -3.484375q1.046875 -1.671875 3.0 -1.671875q1.125 0 1.90625 0.5q0.78125 0.484375 1.484375 1.828125q0.703125 1.328125 0.703125 2.828125zm-1.875 0q0 -1.515625 -0.84375 -2.65625q-0.484375 -0.625 -1.359375 -0.625q-0.84375 0 -1.390625 0.6875q-0.8125 1.046875 -0.8125 2.59375l0 2.0625q0 1.515625 0.859375 2.65625q0.484375 0.625 1.359375 0.625q0.84375 0 1.375 -0.6875q0.8125 -1.046875 0.8125 -2.59375l0 -2.0625zm11.726807 -4.84375l0 7.296875q0.59375 0 0.875 0.265625q0.28125 0.25 0.28125 0.671875q0 0.40625 -0.28125 0.671875q-0.28125 0.265625 -0.875 0.265625l0 0.734375q0.59375 0 0.875 0.265625q0.28125 0.265625 0.28125 0.6875q0 0.40625 -0.28125 0.671875q-0.28125 0.25 -0.953125 0.25l-2.515625 0q-0.671875 0 -0.96875 -0.25q-0.28125 -0.265625 -0.28125 -0.6875q0 -0.40625 0.28125 -0.671875q0.296875 -0.265625 0.96875 -0.265625l0.734375 0l0 -0.734375l-5.078125 0l0 -1.5625l4.46875 -7.609375l2.46875 0zm-1.859375 7.296875l0 -4.59375l-2.703125 4.59375l2.703125 0zm14.398712 -2.453125l0 2.0625q0 1.8125 -1.0625 3.484375q-1.046875 1.65625 -3.0 1.65625q-1.125 0 -1.90625 -0.484375q-0.78125 -0.5 -1.484375 -1.828125q-0.6875 -1.34375 -0.6875 -2.828125l0 -2.0625q0 -1.8125 1.046875 -3.484375q1.046875 -1.671875 3.0 -1.671875q1.125 0 1.90625 0.5q0.78125 0.484375 1.484375 1.828125q0.703125 1.328125 0.703125 2.828125zm-1.875 0q0 -1.515625 -0.84375 -2.65625q-0.484375 -0.625 -1.359375 -0.625q-0.84375 0 -1.390625 0.6875q-0.8125 1.046875 -0.8125 2.59375l0 2.0625q0 1.515625 0.859375 2.65625q0.484375 0.625 1.359375 0.625q0.84375 0 1.375 -0.6875q0.8125 -1.046875 0.8125 -2.59375l0 -2.0625z" fill-rule="nonzero"/><path fill="#000000" fill-opacity="0.0" d="m200.62993 436.77692l0.97636414 -84.50394" fill-rule="evenodd"/><path stroke="#ff0000" stroke-width="2.0" stroke-linejoin="round" stroke-linecap="butt" d="m200.62993 436.77692l0.83773804 -72.50476" fill-rule="evenodd"/><path fill="#ff0000" stroke="#ff0000" stroke-width="2.0" stroke-linecap="butt" d="m204.7709 364.31033l-3.1983795 -9.11377l-3.4081116 9.037445z" fill-rule="evenodd"/><path fill="#000000" fill-opacity="0.0" d="m557.6352 436.77692l255.18109 0l0 64.62991l-255.18109 0z" fill-rule="evenodd"/><path fill="#0000ff" d="m574.90717 451.8844l0 4.1875q0.671875 -0.453125 1.375 -0.671875q0.71875 -0.21875 1.4375 -0.21875q1.9375 0 3.28125 1.34375q1.34375 1.328125 1.34375 3.234375q0 1.8125 -1.28125 3.03125q-1.28125 1.203125 -3.390625 1.203125q-0.734375 0 -1.4375 -0.1875q-0.6875 -0.1875 -1.328125 -0.5625l0 0.453125l-2.1875 0q-0.6875 0 -0.96875 -0.25q-0.28125 -0.265625 -0.28125 -0.6875q0 -0.40625 0.28125 -0.671875q0.296875 -0.265625 0.96875 -0.265625l0.3125 0l0 -8.078125l-0.3125 0q-0.6875 0 -0.96875 -0.25q-0.28125 -0.265625 -0.28125 -0.6875q0 -0.40625 0.28125 -0.65625q0.28125 -0.265625 0.96875 -0.265625l2.1875 0zm5.578125 7.921875q0 -1.15625 -0.8125 -1.953125q-0.8125 -0.8125 -1.984375 -0.8125q-1.171875 0 -1.984375 0.8125q-0.796875 0.796875 -0.796875 1.921875q0 1.03125 0.71875 1.703125q0.734375 0.65625 2.0625 0.65625q1.328125 0 2.0625 -0.65625q0.734375 -0.671875 0.734375 -1.671875zm8.633057 -7.921875l0 1.96875l-2.21875 0l0 -1.96875l2.21875 0zm0.25 3.546875l0 6.390625l2.25 0q0.671875 0 0.953125 0.265625q0.296875 0.265625 0.296875 0.6875q0 0.40625 -0.296875 0.671875q-0.28125 0.25 -0.953125 0.25l-6.359375 0q-0.671875 0 -0.953125 -0.25q-0.28125 -0.265625 -0.28125 -0.6875q0 -0.40625 0.28125 -0.671875q0.28125 -0.265625 0.953125 -0.265625l2.25 0l0 -4.53125l-1.5 0q-0.671875 0 -0.96875 -0.25q-0.28125 -0.265625 -0.28125 -0.6875q0 -0.40625 0.28125 -0.65625q0.296875 -0.265625 0.96875 -0.265625l3.359375 0zm7.9299927 -3.546875l0 4.1875q0.671875 -0.453125 1.375 -0.671875q0.71875 -0.21875 1.4375 -0.21875q1.9375 0 3.28125 1.34375q1.34375 1.328125 1.34375 3.234375q0 1.8125 -1.28125 3.03125q-1.28125 1.203125 -3.390625 1.203125q-0.734375 0 -1.4375 -0.1875q-0.6875 -0.1875 -1.328125 -0.5625l0 0.453125l-2.1875 0q-0.6875 0 -0.96875 -0.25q-0.28125 -0.265625 -0.28125 -0.6875q0 -0.40625 0.28125 -0.671875q0.296875 -0.265625 0.96875 -0.265625l0.3125 0l0 -8.078125l-0.3125 0q-0.6875 0 -0.96875 -0.25q-0.28125 -0.265625 -0.28125 -0.6875q0 -0.40625 0.28125 -0.65625q0.28125 -0.265625 0.96875 -0.265625l2.1875 0zm5.578125 7.921875q0 -1.15625 -0.8125 -1.953125q-0.8125 -0.8125 -1.984375 -0.8125q-1.171875 0 -1.984375 0.8125q-0.796875 0.796875 -0.796875 1.921875q0 1.03125 0.71875 1.703125q0.734375 0.65625 2.0625 0.65625q1.328125 0 2.0625 -0.65625q0.734375 -0.671875 0.734375 -1.671875zm8.898682 -7.921875l0 9.9375l2.234375 0q0.6875 0 0.96875 0.265625q0.28125 0.265625 0.28125 0.6875q0 0.40625 -0.28125 0.671875q-0.28125 0.25 -0.96875 0.25l-6.34375 0q-0.671875 0 -0.96875 -0.25q-0.28125 -0.265625 -0.28125 -0.6875q0 -0.40625 0.28125 -0.671875q0.296875 -0.265625 0.96875 -0.265625l2.25 0l0 -8.078125l-1.515625 0q-0.65625 0 -0.953125 -0.25q-0.296875 -0.265625 -0.296875 -0.6875q0 -0.40625 0.28125 -0.65625q0.296875 -0.265625 0.96875 -0.265625l3.375 0zm10.929932 0l0 1.96875l-2.21875 0l0 -1.96875l2.21875 0zm0.25 3.546875l0 6.390625l2.25 0q0.671875 0 0.953125 0.265625q0.296875 0.265625 0.296875 0.6875q0 0.40625 -0.296875 0.671875q-0.28125 0.25 -0.953125 0.25l-6.359375 0q-0.671875 0 -0.953125 -0.25q-0.28125 -0.265625 -0.28125 -0.6875q0 -0.40625 0.28125 -0.671875q0.28125 -0.265625 0.953125 -0.265625l2.25 0l0 -4.53125l-1.5 0q-0.671875 0 -0.96875 -0.25q-0.28125 -0.265625 -0.28125 -0.6875q0 -0.40625 0.28125 -0.65625q0.296875 -0.265625 0.96875 -0.265625l3.359375 0zm15.133057 4.28125q0 1.078125 -0.609375 2.09375q-0.59375 1.0 -1.78125 1.59375q-1.171875 0.59375 -2.453125 0.59375q-1.265625 0 -2.4375 -0.578125q-1.171875 -0.59375 -1.78125 -1.59375q-0.609375 -1.015625 -0.609375 -2.125q0 -1.125 0.609375 -2.203125q0.625 -1.078125 1.78125 -1.6875q1.171875 -0.625 2.4375 -0.625q1.28125 0 2.453125 0.640625q1.1875 0.625 1.78125 1.703125q0.609375 1.0625 0.609375 2.1875zm-1.875 0.015625q0 -0.90625 -0.640625 -1.65625q-0.890625 -1.03125 -2.328125 -1.03125q-1.265625 0 -2.109375 0.8125q-0.84375 0.8125 -0.84375 1.875q0 0.875 0.84375 1.640625q0.859375 0.765625 2.109375 0.765625q1.265625 0 2.109375 -0.765625q0.859375 -0.765625 0.859375 -1.640625z" fill-rule="nonzero"/><path fill="#0000ff" d="m650.3444 460.46252q0 -1.140625 0.375 -2.3125q0.28125 -0.859375 0.875 -1.90625q0.421875 -0.765625 0.625 -0.9375q0.203125 -0.171875 0.453125 -0.171875q0.28125 0 0.46875 0.203125q0.203125 0.1875 0.203125 0.46875q0 0.1875 -0.15625 0.453125q-0.703125 1.140625 -1.03125 2.15625q-0.3125 1.0 -0.3125 2.046875q0 1.03125 0.3125 2.046875q0.328125 1.0 1.03125 2.15625q0.15625 0.25 0.15625 0.453125q0 0.265625 -0.203125 0.453125q-0.1875 0.203125 -0.46875 0.203125q-0.25 0 -0.421875 -0.15625q-0.265625 -0.21875 -0.703125 -1.015625q-0.609375 -1.15625 -0.84375 -1.90625q-0.359375 -1.140625 -0.359375 -2.234375zm11.529419 -3.3125l0 3.78125q0 1.234375 -0.890625 2.09375q-0.890625 0.859375 -2.140625 0.859375q-0.609375 0 -1.15625 -0.203125q-0.546875 -0.21875 -0.984375 -0.640625q-0.421875 -0.4375 -0.671875 -0.890625q-0.234375 -0.453125 -0.234375 -1.21875l0 -3.78125q-0.421875 0 -0.625 -0.1875q-0.203125 -0.203125 -0.203125 -0.484375q0 -0.296875 0.203125 -0.484375q0.203125 -0.1875 0.6875 -0.1875l1.75 0q0.484375 0 0.6875 0.1875q0.203125 0.1875 0.203125 0.484375q0 0.296875 -0.203125 0.484375q-0.203125 0.1875 -0.6875 0.1875l-0.484375 0l0 3.890625q0 0.59375 0.5 1.0625q0.5 0.453125 1.203125 0.453125q0.46875 0 0.875 -0.21875q0.421875 -0.21875 0.671875 -0.640625q0.171875 -0.265625 0.171875 -0.65625l0 -3.890625l-0.484375 0q-0.484375 0 -0.6875 -0.1875q-0.203125 -0.1875 -0.203125 -0.484375q0 -0.296875 0.203125 -0.484375q0.203125 -0.1875 0.6875 -0.1875l1.75 0q0.484375 0 0.6875 0.1875q0.203125 0.1875 0.203125 0.484375q0 0.28125 -0.203125 0.484375q-0.203125 0.1875 -0.625 0.1875zm6.388794 2.203125q-0.328125 -0.203125 -0.6875 -0.296875q-0.34375 -0.109375 -0.734375 -0.109375q-0.78125 0 -1.234375 0.25q-0.203125 0.109375 -0.203125 0.25q0 0.140625 0.265625 0.28125q0.21875 0.109375 0.9375 0.203125q1.328125 0.1875 1.84375 0.375q0.6875 0.234375 1.046875 0.71875q0.375 0.46875 0.375 1.0q0 0.703125 -0.625 1.1875q-0.90625 0.703125 -2.34375 0.703125q-0.578125 0 -1.078125 -0.109375q-0.484375 -0.09375 -0.890625 -0.296875q-0.109375 0.09375 -0.21875 0.140625q-0.109375 0.046875 -0.21875 0.046875q-0.3125 0 -0.5 -0.203125q-0.1875 -0.21875 -0.1875 -0.6875l0 -0.453125q0 -0.484375 0.1875 -0.6875q0.1875 -0.203125 0.484375 -0.203125q0.234375 0 0.390625 0.140625q0.171875 0.125 0.265625 0.453125q0.296875 0.25 0.71875 0.390625q0.4375 0.125 1.0 0.125q0.921875 0 1.421875 -0.28125q0.25 -0.140625 0.25 -0.296875q0 -0.265625 -0.34375 -0.4375q-0.34375 -0.15625 -1.421875 -0.28125q-1.609375 -0.171875 -2.15625 -0.65625q-0.53125 -0.46875 -0.53125 -1.171875q0 -0.703125 0.59375 -1.1875q0.828125 -0.640625 2.15625 -0.640625q0.453125 0 0.875 0.09375q0.4375 0.078125 0.828125 0.25q0.125 -0.078125 0.234375 -0.125q0.109375 -0.046875 0.1875 -0.046875q0.28125 0 0.453125 0.203125q0.1875 0.203125 0.1875 0.6875l0 0.328125q0 0.4375 -0.09375 0.59375q-0.21875 0.296875 -0.578125 0.296875q-0.234375 0 -0.421875 -0.140625q-0.171875 -0.15625 -0.234375 -0.40625zm9.388855 -1.5625l0 4.578125q0.421875 0 0.625 0.1875q0.203125 0.1875 0.203125 0.484375q0 0.28125 -0.203125 0.46875q-0.203125 0.1875 -0.6875 0.1875l-1.265625 0l0 -0.3125q-0.578125 0.265625 -1.09375 0.390625q-0.515625 0.140625 -0.984375 0.140625q-0.65625 0 -1.140625 -0.28125q-0.484375 -0.28125 -0.765625 -0.765625q-0.203125 -0.34375 -0.203125 -0.875l0 -2.875l-0.21875 0q-0.484375 0 -0.703125 -0.1875q-0.203125 -0.1875 -0.203125 -0.484375q0 -0.28125 0.203125 -0.46875q0.21875 -0.1875 0.703125 -0.1875l1.5625 0l0 3.96875q0 0.421875 0.203125 0.625q0.203125 0.1875 0.625 0.1875q0.40625 0 0.859375 -0.15625q0.46875 -0.15625 1.15625 -0.578125l0 -2.71875l-0.484375 0q-0.484375 0 -0.6875 -0.1875q-0.203125 -0.1875 -0.203125 -0.484375q0 -0.28125 0.203125 -0.46875q0.203125 -0.1875 0.6875 -0.1875l1.8125 0zm6.373169 5.90625l0 -0.3125q-0.5 0.265625 -1.109375 0.390625q-0.609375 0.140625 -1.09375 0.140625q-1.078125 0 -1.75 -0.5625q-0.671875 -0.578125 -0.671875 -1.265625q0 -0.84375 0.859375 -1.5625q0.859375 -0.71875 2.359375 -0.71875q0.609375 0 1.40625 0.140625l0 -0.328125q0 -0.296875 -0.265625 -0.484375q-0.25 -0.1875 -0.96875 -0.1875q-0.59375 0 -1.546875 0.234375q-0.34375 0.078125 -0.546875 0.078125q-0.265625 0 -0.453125 -0.1875q-0.171875 -0.1875 -0.171875 -0.484375q0 -0.171875 0.0625 -0.296875q0.0625 -0.125 0.171875 -0.203125q0.125 -0.078125 0.5 -0.171875q0.484375 -0.140625 1.0 -0.21875q0.515625 -0.078125 0.9375 -0.078125q1.234375 0 1.921875 0.53125q0.6875 0.53125 0.6875 1.46875l0 2.75l0.234375 0q0.484375 0 0.6875 0.1875q0.203125 0.171875 0.203125 0.484375q0 0.28125 -0.203125 0.46875q-0.203125 0.1875 -0.6875 0.1875l-1.5625 0zm0 -2.390625q-0.796875 -0.15625 -1.484375 -0.15625q-0.8125 0 -1.390625 0.40625q-0.375 0.25 -0.375 0.5q0 0.203125 0.1875 0.3125q0.3125 0.21875 0.890625 0.21875q0.46875 0 1.078125 -0.1875q0.609375 -0.1875 1.09375 -0.515625l0 -0.578125zm6.513794 -3.515625l0 0.828125q0.84375 -0.609375 1.328125 -0.796875q0.484375 -0.203125 0.90625 -0.203125q0.65625 0 1.265625 0.46875q0.421875 0.328125 0.421875 0.671875q0 0.28125 -0.203125 0.484375q-0.203125 0.203125 -0.484375 0.203125q-0.25 0 -0.53125 -0.25q-0.265625 -0.25 -0.46875 -0.25q-0.28125 0 -0.84375 0.359375q-0.546875 0.34375 -1.390625 1.046875l0 2.015625l1.90625 0q0.484375 0 0.6875 0.1875q0.203125 0.171875 0.203125 0.484375q0 0.28125 -0.203125 0.46875q-0.203125 0.1875 -0.6875 0.1875l-4.03125 0q-0.484375 0 -0.6875 -0.1875q-0.203125 -0.1875 -0.203125 -0.484375q0 -0.296875 0.203125 -0.46875q0.203125 -0.1875 0.6875 -0.1875l0.796875 0l0 -3.25l-0.484375 0q-0.484375 0 -0.6875 -0.1875q-0.203125 -0.1875 -0.203125 -0.484375q0 -0.28125 0.203125 -0.46875q0.203125 -0.1875 0.6875 -0.1875l1.8125 0zm8.763794 -2.53125l0 1.40625l-1.59375 0l0 -1.40625l1.59375 0zm0.171875 2.53125l0 4.578125l1.609375 0q0.46875 0 0.671875 0.1875q0.21875 0.171875 0.21875 0.484375q0 0.28125 -0.21875 0.46875q-0.203125 0.1875 -0.671875 0.1875l-4.546875 0q-0.46875 0 -0.6875 -0.1875q-0.203125 -0.1875 -0.203125 -0.484375q0 -0.296875 0.203125 -0.46875q0.21875 -0.1875 0.6875 -0.1875l1.609375 0l0 -3.25l-1.078125 0q-0.46875 0 -0.6875 -0.1875q-0.203125 -0.1875 -0.203125 -0.484375q0 -0.28125 0.203125 -0.46875q0.203125 -0.1875 0.6875 -0.1875l2.40625 0zm10.81073 3.0625q0 0.765625 -0.4375 1.484375q-0.421875 0.71875 -1.265625 1.15625q-0.84375 0.421875 -1.75 0.421875q-0.921875 0 -1.75 -0.421875q-0.828125 -0.421875 -1.265625 -1.140625q-0.4375 -0.71875 -0.4375 -1.515625q0 -0.796875 0.4375 -1.5625q0.4375 -0.78125 1.265625 -1.21875q0.84375 -0.4375 1.75 -0.4375q0.90625 0 1.75 0.453125q0.84375 0.4375 1.265625 1.203125q0.4375 0.765625 0.4375 1.578125zm-1.34375 0q0 -0.640625 -0.453125 -1.171875q-0.640625 -0.734375 -1.65625 -0.734375q-0.90625 0 -1.515625 0.578125q-0.609375 0.578125 -0.609375 1.34375q0 0.625 0.609375 1.171875q0.625 0.53125 1.515625 0.53125q0.890625 0 1.5 -0.53125q0.609375 -0.546875 0.609375 -1.1875zm7.310669 -1.5q-0.328125 -0.203125 -0.6875 -0.296875q-0.34375 -0.109375 -0.734375 -0.109375q-0.78125 0 -1.234375 0.25q-0.203125 0.109375 -0.203125 0.25q0 0.140625 0.265625 0.28125q0.21875 0.109375 0.9375 0.203125q1.328125 0.1875 1.84375 0.375q0.6875 0.234375 1.046875 0.71875q0.375 0.46875 0.375 1.0q0 0.703125 -0.625 1.1875q-0.90625 0.703125 -2.34375 0.703125q-0.578125 0 -1.078125 -0.109375q-0.484375 -0.09375 -0.890625 -0.296875q-0.109375 0.09375 -0.21875 0.140625q-0.109375 0.046875 -0.21875 0.046875q-0.3125 0 -0.5 -0.203125q-0.1875 -0.21875 -0.1875 -0.6875l0 -0.453125q0 -0.484375 0.1875 -0.6875q0.1875 -0.203125 0.484375 -0.203125q0.234375 0 0.390625 0.140625q0.171875 0.125 0.265625 0.453125q0.296875 0.25 0.71875 0.390625q0.4375 0.125 1.0 0.125q0.921875 0 1.421875 -0.28125q0.25 -0.140625 0.25 -0.296875q0 -0.265625 -0.34375 -0.4375q-0.34375 -0.15625 -1.421875 -0.28125q-1.609375 -0.171875 -2.15625 -0.65625q-0.53125 -0.46875 -0.53125 -1.171875q0 -0.703125 0.59375 -1.1875q0.828125 -0.640625 2.15625 -0.640625q0.453125 0 0.875 0.09375q0.4375 0.078125 0.828125 0.25q0.125 -0.078125 0.234375 -0.125q0.109375 -0.046875 0.1875 -0.046875q0.28125 0 0.453125 0.203125q0.1875 0.203125 0.1875 0.6875l0 0.328125q0 0.4375 -0.09375 0.59375q-0.21875 0.296875 -0.578125 0.296875q-0.234375 0 -0.421875 -0.140625q-0.171875 -0.15625 -0.234375 -0.40625zm7.920044 -1.46875l0 -0.421875q0 -0.640625 -0.375 -1.03125q-0.375 -0.390625 -0.953125 -0.390625q-0.46875 0 -0.890625 0.3125q-0.40625 0.3125 -0.609375 0.796875q-0.375 0.859375 -0.375 1.734375l0 1.96875q0 1.515625 0.671875 2.390625q0.453125 0.578125 1.234375 0.578125q0.421875 0 0.78125 -0.109375q0.359375 -0.109375 0.546875 -0.296875q0.203125 -0.203125 0.359375 -0.203125q0.21875 0 0.359375 0.15625q0.140625 0.140625 0.140625 0.359375q0 0.3125 -0.4375 0.625q-0.65625 0.453125 -1.78125 0.453125q-0.859375 0 -1.421875 -0.390625q-0.71875 -0.515625 -1.078125 -1.5q-0.359375 -0.984375 -0.359375 -1.96875l0 -2.140625q0 -1.5625 0.765625 -2.65625q0.78125 -1.09375 2.078125 -1.09375q0.578125 0 1.078125 0.25q0.515625 0.234375 0.875 0.84375q0.375 0.59375 0.375 1.3125l0 3.5625q0.28125 0.140625 0.28125 0.4375q0 0.234375 -0.15625 0.375q-0.15625 0.140625 -0.515625 0.140625l-0.59375 0l0 -0.046875q-0.296875 0.046875 -0.453125 0.046875q-0.78125 0 -1.359375 -0.578125q-0.578125 -0.578125 -0.578125 -1.359375q0 -0.828125 0.640625 -1.453125q0.640625 -0.640625 1.75 -0.703125zm0 1.0q-0.6875 0.0625 -1.0625 0.40625q-0.359375 0.328125 -0.359375 0.765625q0 0.359375 0.296875 0.640625q0.3125 0.265625 0.8125 0.265625q0.09375 0 0.3125 -0.015625l0 -2.0625zm5.388794 3.484375l2.921875 0q0.25 -0.203125 0.453125 -0.203125q0.3125 0 0.484375 0.203125q0.1875 0.203125 0.1875 0.6875l0 0.640625l-6.078125 0l0 -1.40625q3.609375 -2.984375 4.34375 -3.828125q0.390625 -0.4375 0.390625 -0.828125q0 -0.484375 -0.4375 -0.859375q-0.421875 -0.375 -1.125 -0.375q-0.71875 0 -1.203125 0.40625q-0.234375 0.21875 -0.390625 0.65625q-0.09375 0.28125 -0.25 0.40625q-0.15625 0.109375 -0.390625 0.109375q-0.28125 0 -0.484375 -0.1875q-0.1875 -0.203125 -0.1875 -0.46875q0 -0.390625 0.359375 -0.96875q0.359375 -0.59375 1.046875 -0.9375q0.703125 -0.359375 1.515625 -0.359375q1.265625 0 2.0625 0.765625q0.8125 0.765625 0.8125 1.859375q0 0.546875 -0.234375 1.03125q-0.234375 0.46875 -1.109375 1.296875q-0.6875 0.65625 -2.6875 2.359375zm11.326355 -4.34375q0.234375 -0.21875 0.5 -0.21875q0.28125 0 0.46875 0.203125q0.1875 0.203125 0.1875 0.671875l0 0.859375q0 0.484375 -0.1875 0.6875q-0.1875 0.203125 -0.484375 0.203125q-0.28125 0 -0.46875 -0.15625q-0.125 -0.125 -0.203125 -0.484375q-0.078125 -0.359375 -0.390625 -0.53125q-0.515625 -0.3125 -1.34375 -0.3125q-0.9375 0 -1.515625 0.5625q-0.5625 0.546875 -0.5625 1.390625q0 0.78125 0.546875 1.234375q0.546875 0.453125 1.8125 0.453125q0.828125 0 1.359375 -0.171875q0.3125 -0.109375 0.59375 -0.359375q0.28125 -0.25 0.5 -0.25q0.28125 0 0.46875 0.203125q0.203125 0.203125 0.203125 0.484375q0 0.4375 -0.59375 0.828125q-0.90625 0.59375 -2.640625 0.59375q-1.546875 0 -2.421875 -0.640625q-1.171875 -0.859375 -1.171875 -2.375q0 -1.421875 0.953125 -2.34375q0.953125 -0.9375 2.484375 -0.9375q0.546875 0 1.015625 0.109375q0.484375 0.09375 0.890625 0.296875zm7.295044 -1.421875l-3.046875 0q-0.03125 0.390625 -0.203125 0.5625q-0.171875 0.171875 -0.46875 0.171875q-0.296875 0 -0.484375 -0.1875q-0.1875 -0.203125 -0.1875 -0.6875l0 -1.1875l5.796875 0l0 1.328125l-2.15625 6.4375q-0.140625 0.40625 -0.3125 0.546875q-0.15625 0.125 -0.390625 0.125q-0.28125 0 -0.484375 -0.1875q-0.203125 -0.203125 -0.203125 -0.453125q0 -0.15625 0.109375 -0.46875l2.03125 -6.0zm4.935669 -1.34375l0 2.984375q0.5 -0.3125 1.0 -0.46875q0.5 -0.15625 1.015625 -0.15625q1.390625 0 2.34375 0.953125q0.96875 0.953125 0.96875 2.3125q0 1.296875 -0.921875 2.171875q-0.90625 0.859375 -2.421875 0.859375q-0.53125 0 -1.03125 -0.140625q-0.484375 -0.140625 -0.953125 -0.40625l0 0.328125l-1.5625 0q-0.484375 0 -0.6875 -0.1875q-0.203125 -0.1875 -0.203125 -0.484375q0 -0.296875 0.203125 -0.46875q0.21875 -0.1875 0.6875 -0.1875l0.234375 0l0 -5.78125l-0.234375 0q-0.484375 0 -0.6875 -0.1875q-0.203125 -0.1875 -0.203125 -0.484375q0 -0.28125 0.203125 -0.46875q0.203125 -0.1875 0.6875 -0.1875l1.5625 0zm4.0 5.65625q0 -0.828125 -0.59375 -1.390625q-0.578125 -0.578125 -1.40625 -0.578125q-0.84375 0 -1.421875 0.578125q-0.578125 0.5625 -0.578125 1.375q0 0.734375 0.515625 1.203125q0.53125 0.46875 1.484375 0.46875q0.953125 0 1.46875 -0.46875q0.53125 -0.46875 0.53125 -1.1875zm7.576294 -1.484375q0.515625 0.40625 0.765625 0.90625q0.265625 0.5 0.265625 1.109375q0 0.671875 -0.328125 1.234375q-0.328125 0.5625 -1.03125 0.890625q-0.703125 0.3125 -1.5625 0.3125q-0.859375 0 -1.5625 -0.3125q-0.6875 -0.328125 -1.015625 -0.890625q-0.328125 -0.578125 -0.328125 -1.234375q0 -0.609375 0.25 -1.109375q0.265625 -0.5 0.78125 -0.90625q-0.453125 -0.40625 -0.6875 -0.875q-0.21875 -0.46875 -0.21875 -1.0q0 -1.015625 0.78125 -1.75q0.78125 -0.75 2.015625 -0.75q1.21875 0 2.0 0.75q0.78125 0.734375 0.78125 1.75q0 0.53125 -0.234375 1.0q-0.21875 0.46875 -0.671875 0.875zm-0.46875 -1.84375q0 -0.5 -0.390625 -0.84375q-0.375 -0.34375 -1.03125 -0.34375q-0.671875 0 -1.0625 0.34375q-0.375 0.34375 -0.375 0.84375q0 0.5 0.375 0.859375q0.390625 0.34375 1.0625 0.34375q0.65625 0 1.03125 -0.34375q0.390625 -0.359375 0.390625 -0.859375zm0.15625 3.921875q0 -0.53125 -0.453125 -0.953125q-0.453125 -0.421875 -1.109375 -0.421875q-0.671875 0 -1.125 0.421875q-0.453125 0.421875 -0.453125 0.96875q0 0.421875 0.390625 0.734375q0.390625 0.296875 1.1875 0.296875q0.796875 0 1.171875 -0.296875q0.390625 -0.3125 0.390625 -0.75zm8.37323 -6.234375l0 5.21875q0.421875 0 0.625 0.1875q0.203125 0.1875 0.203125 0.484375q0 0.28125 -0.203125 0.46875q-0.203125 0.1875 -0.625 0.1875l0 0.546875q0.421875 0 0.625 0.1875q0.203125 0.1875 0.203125 0.484375q0 0.28125 -0.203125 0.46875q-0.203125 0.1875 -0.6875 0.1875l-1.796875 0q-0.46875 0 -0.6875 -0.1875q-0.203125 -0.1875 -0.203125 -0.484375q0 -0.296875 0.203125 -0.46875q0.21875 -0.1875 0.6875 -0.1875l0.53125 0l0 -0.546875l-3.625 0l0 -1.109375l3.1875 -5.4375l1.765625 0zm-1.328125 5.21875l0 -3.28125l-1.9375 3.28125l1.9375 0zm10.435669 -5.234375l0 7.109375l0.21875 0q0.484375 0 0.6875 0.1875q0.21875 0.171875 0.21875 0.484375q0 0.28125 -0.21875 0.46875q-0.203125 0.1875 -0.6875 0.1875l-1.546875 0l0 -0.328125q-0.46875 0.265625 -0.96875 0.40625q-0.484375 0.140625 -1.03125 0.140625q-1.5 0 -2.421875 -0.859375q-0.90625 -0.875 -0.90625 -2.171875q0 -1.359375 0.953125 -2.3125q0.96875 -0.953125 2.359375 -0.953125q0.515625 0 1.015625 0.15625q0.5 0.15625 1.0 0.46875l0 -1.65625l-0.234375 0q-0.484375 0 -0.6875 -0.1875q-0.203125 -0.1875 -0.203125 -0.46875q0 -0.296875 0.203125 -0.484375q0.203125 -0.1875 0.6875 -0.1875l1.5625 0zm-1.328125 5.65625q0 -0.828125 -0.59375 -1.390625q-0.578125 -0.578125 -1.40625 -0.578125q-0.84375 0 -1.421875 0.578125q-0.578125 0.5625 -0.578125 1.375q0 0.734375 0.515625 1.203125q0.53125 0.46875 1.484375 0.46875q0.9375 0 1.46875 -0.46875q0.53125 -0.46875 0.53125 -1.1875zm9.607544 0.5l-5.46875 0q0.203125 0.53125 0.734375 0.84375q0.53125 0.3125 1.4375 0.3125q0.75 0 1.96875 -0.3125q0.515625 -0.125 0.703125 -0.125q0.265625 0 0.453125 0.1875q0.1875 0.1875 0.1875 0.46875q0 0.265625 -0.203125 0.4375q-0.265625 0.25 -1.28125 0.46875q-1.0 0.21875 -1.921875 0.21875q-1.609375 0 -2.578125 -0.90625q-0.953125 -0.90625 -0.953125 -2.234375q0 -1.40625 1.03125 -2.28125q1.046875 -0.875 2.40625 -0.875q0.8125 0 1.484375 0.28125q0.6875 0.28125 1.015625 0.609375q0.46875 0.484375 0.78125 1.203125q0.203125 0.484375 0.203125 1.140625l0 0.5625zm-1.46875 -1.328125q-0.3125 -0.578125 -0.8125 -0.859375q-0.484375 -0.28125 -1.171875 -0.28125q-0.671875 0 -1.171875 0.28125q-0.5 0.28125 -0.8125 0.859375l3.96875 0zm6.685669 0.375q0 1.125 -0.375 2.296875q-0.28125 0.859375 -0.859375 1.90625q-0.421875 0.765625 -0.625 0.9375q-0.203125 0.171875 -0.453125 0.171875q-0.28125 0 -0.484375 -0.203125q-0.1875 -0.1875 -0.1875 -0.453125q0 -0.203125 0.15625 -0.453125q0.703125 -1.15625 1.015625 -2.15625q0.328125 -1.015625 0.328125 -2.046875q0 -1.046875 -0.328125 -2.046875q-0.3125 -1.015625 -1.015625 -2.15625q-0.15625 -0.265625 -0.15625 -0.453125q0 -0.28125 0.1875 -0.46875q0.203125 -0.203125 0.484375 -0.203125q0.25 0 0.421875 0.15625q0.265625 0.21875 0.6875 1.03125q0.625 1.140625 0.84375 1.890625q0.359375 1.15625 0.359375 2.25z" fill-rule="nonzero"/><path fill="#0000ff" d="m662.8462 482.6594l-1.296875 3.4375l-1.75 0l-1.5625 -6.40625q-0.515625 -0.03125 -0.78125 -0.28125q-0.25 -0.265625 -0.25 -0.65625q0 -0.40625 0.28125 -0.65625q0.28125 -0.265625 0.96875 -0.265625l1.734375 0q0.671875 0 0.953125 0.265625q0.296875 0.25 0.296875 0.671875q0 0.40625 -0.328125 0.703125q-0.25 0.21875 -0.96875 0.21875l0.703125 2.96875l1.15625 -3.046875l1.671875 0l1.15625 3.046875l0.734375 -2.96875q-0.6875 0 -0.90625 -0.140625q-0.4375 -0.28125 -0.4375 -0.796875q0 -0.40625 0.28125 -0.65625q0.28125 -0.265625 0.953125 -0.265625l1.765625 0q0.671875 0 0.953125 0.265625q0.296875 0.25 0.296875 0.671875q0 0.375 -0.25 0.640625q-0.25 0.25 -0.75 0.28125l-1.53125 6.40625l-1.71875 0l-1.375 -3.4375zm8.304932 -4.828125l0 0.515625q0.453125 -0.4375 0.8125 -0.609375q0.375 -0.171875 0.859375 -0.171875q0.40625 0 0.8125 0.203125q0.40625 0.203125 0.78125 0.609375q0.484375 -0.40625 0.96875 -0.59375q0.5 -0.203125 1.03125 -0.203125q1.03125 0 1.6875 0.546875q0.84375 0.734375 0.84375 1.921875l0 4.171875q0.59375 0 0.875 0.265625q0.28125 0.265625 0.28125 0.6875q0 0.40625 -0.28125 0.671875q-0.28125 0.25 -0.953125 0.25l-1.78125 0l0 -5.890625q0 -0.4375 -0.15625 -0.59375q-0.15625 -0.171875 -0.46875 -0.171875q-0.3125 0 -0.578125 0.171875q-0.34375 0.21875 -0.828125 0.859375l0 3.75q0.59375 0 0.875 0.265625q0.28125 0.265625 0.28125 0.6875q0 0.40625 -0.28125 0.671875q-0.28125 0.25 -0.953125 0.25l-1.78125 0l0 -5.890625q0 -0.421875 -0.15625 -0.59375q-0.15625 -0.171875 -0.484375 -0.171875q-0.328125 0 -0.65625 0.21875q-0.3125 0.203125 -0.75 0.8125l0 3.75q0.578125 0 0.859375 0.265625q0.296875 0.265625 0.296875 0.6875q0 0.40625 -0.296875 0.671875q-0.28125 0.25 -0.953125 0.25l-1.6875 0q-0.671875 0 -0.953125 -0.25q-0.296875 -0.265625 -0.296875 -0.6875q0 -0.40625 0.28125 -0.671875q0.28125 -0.265625 0.875 -0.265625l0 -4.53125q-0.59375 0 -0.875 -0.265625q-0.28125 -0.265625 -0.28125 -0.671875q0 -0.40625 0.296875 -0.65625q0.28125 -0.265625 0.953125 -0.265625l1.78125 0zm11.758057 7.234375l0 3.0625l1.125 0q0.671875 0 0.953125 0.25q0.28125 0.265625 0.28125 0.6875q0 0.40625 -0.28125 0.671875q-0.28125 0.265625 -0.953125 0.265625l-3.3125 0q-0.671875 0 -0.96875 -0.265625q-0.28125 -0.265625 -0.28125 -0.671875q0 -0.421875 0.28125 -0.6875q0.296875 -0.25 0.96875 -0.25l0.3125 0l0 -8.4375l-0.3125 0q-0.671875 0 -0.96875 -0.25q-0.28125 -0.265625 -0.28125 -0.6875q0 -0.40625 0.28125 -0.65625q0.296875 -0.265625 0.96875 -0.265625l2.1875 0l0 0.625q0.65625 -0.4375 1.359375 -0.65625q0.703125 -0.21875 1.4375 -0.21875q1.90625 0 3.25 1.296875q1.359375 1.296875 1.359375 2.96875q0 1.859375 -1.59375 3.0625q-1.328125 1.0 -3.0 1.0q-0.71875 0 -1.421875 -0.203125q-0.703125 -0.21875 -1.390625 -0.640625zm5.53125 -3.203125q0 -0.390625 -0.3125 -1.0q-0.296875 -0.609375 -0.9375 -1.015625q-0.640625 -0.40625 -1.515625 -0.40625q-1.390625 0 -2.21875 1.046875q-0.546875 0.734375 -0.546875 1.390625q0 0.75 0.796875 1.453125q0.796875 0.703125 1.96875 0.703125q1.1875 0 1.96875 -0.703125q0.796875 -0.703125 0.796875 -1.46875zm9.867432 -7.578125l0 1.96875l-2.234375 0l0 -1.96875l2.234375 0zm-0.765625 5.40625l-3.8125 0q-0.671875 0 -0.96875 -0.25q-0.28125 -0.265625 -0.28125 -0.6875q0 -0.40625 0.28125 -0.65625q0.296875 -0.265625 0.96875 -0.265625l5.671875 0l0 8.65625q0 0.984375 -0.421875 1.71875q-0.40625 0.734375 -1.265625 1.265625q-0.84375 0.53125 -1.921875 0.53125l-2.125 0q-0.671875 0 -0.953125 -0.265625q-0.28125 -0.265625 -0.28125 -0.671875q0 -0.421875 0.28125 -0.6875q0.28125 -0.25 0.953125 -0.25l2.0625 0q0.859375 0 1.328125 -0.46875q0.484375 -0.453125 0.484375 -1.171875l0 -6.796875zm9.679993 -1.859375l0 1.15625q1.1875 -0.84375 1.859375 -1.125q0.6875 -0.28125 1.265625 -0.28125q0.921875 0 1.78125 0.671875q0.578125 0.453125 0.578125 0.921875q0 0.40625 -0.28125 0.6875q-0.28125 0.28125 -0.671875 0.28125q-0.34375 0 -0.734375 -0.34375q-0.375 -0.359375 -0.671875 -0.359375q-0.390625 0 -1.171875 0.5q-0.78125 0.484375 -1.953125 1.46875l0 2.8125l2.671875 0q0.671875 0 0.953125 0.265625q0.296875 0.265625 0.296875 0.6875q0 0.40625 -0.296875 0.671875q-0.28125 0.25 -0.953125 0.25l-5.640625 0q-0.671875 0 -0.96875 -0.25q-0.28125 -0.265625 -0.28125 -0.6875q0 -0.40625 0.28125 -0.671875q0.296875 -0.265625 0.96875 -0.265625l1.109375 0l0 -4.53125l-0.671875 0q-0.671875 0 -0.96875 -0.25q-0.28125 -0.265625 -0.28125 -0.6875q0 -0.40625 0.28125 -0.65625q0.296875 -0.265625 0.96875 -0.265625l2.53125 0z" fill-rule="nonzero"/><path fill="#000000" fill-opacity="0.0" d="m685.2257 436.77692l0.9763794 -84.50394" fill-rule="evenodd"/><path stroke="#ff0000" stroke-width="2.0" stroke-linejoin="round" stroke-linecap="butt" d="m685.2257 436.77692l0.8377075 -72.50476" fill-rule="evenodd"/><path fill="#ff0000" stroke="#ff0000" stroke-width="2.0" stroke-linecap="butt" d="m689.3667 364.31033l-3.1983643 -9.11377l-3.408142 9.037445z" fill-rule="evenodd"/><path fill="#000000" fill-opacity="0.0" d="m175.14699 180.8819l382.48822 -117.133865" fill-rule="evenodd"/><path stroke="#ff00ff" stroke-width="2.0" stroke-linejoin="round" stroke-linecap="butt" stroke-dasharray="8.0,6.0" d="m175.14699 180.8819l371.01422 -113.62005" fill-rule="evenodd"/><path fill="#ff00ff" stroke="#ff00ff" stroke-width="2.0" stroke-linecap="butt" d="m547.1285 70.420525l7.7110596 -5.816345l-9.645691 -0.5009918z" fill-rule="evenodd"/></g></svg>